<?xml version="1.0" encoding="utf-8"?>
<!-- Generator: Adobe Illustrator 16.0.0, SVG Export Plug-In . SVG Version: 6.00 Build 0)  -->
<!DOCTYPE svg PUBLIC "-//W3C//DTD SVG 1.1//EN" "http://www.w3.org/Graphics/SVG/1.1/DTD/svg11.dtd">
<svg version="1.1" id="Camada_1" xmlns="http://www.w3.org/2000/svg" xmlns:xlink="http://www.w3.org/1999/xlink" x="0px" y="0px"
	 width="29.7px" height="42px" viewBox="0 0 29.7 42" enable-background="new 0 0 29.7 42" xml:space="preserve">
<g>
	<path fill="#FFFFFF" d="M6.821,34.448c0,0.132-0.106,0.239-0.239,0.239l0,0c-0.132,0-0.238-0.107-0.238-0.239v-3.956
		c0-0.132,0.106-0.239,0.238-0.239l0,0c0.133,0,0.239,0.107,0.239,0.239V34.448z"/>
	<path fill="#FFFFFF" d="M6.343,34.447c0,0.144,0.087,0.261,0.195,0.261h1.869c0.108,0,0.196-0.117,0.196-0.261l0,0
		c0-0.145-0.088-0.261-0.196-0.261H6.539C6.43,34.187,6.343,34.303,6.343,34.447L6.343,34.447z"/>
	<path fill="#FFFFFF" d="M9.931,34.609c-0.022,0.117,0.082,0.236,0.234,0.266l0,0c0.151,0.028,0.292-0.044,0.314-0.161l0.786-4.122
		c0.022-0.117-0.082-0.236-0.233-0.266l0,0c-0.151-0.028-0.293,0.044-0.315,0.161L9.931,34.609z"/>
	<path fill="#FFFFFF" d="M12.435,34.714c0.021,0.118,0.162,0.191,0.313,0.164l0,0c0.152-0.028,0.257-0.146,0.235-0.265l-0.759-4.127
		c-0.022-0.118-0.162-0.19-0.314-0.163l0,0c-0.151,0.028-0.257,0.146-0.235,0.265L12.435,34.714z"/>
	<path fill="#FFFFFF" d="M12.33,33.056c0,0.145-0.097,0.261-0.217,0.261h-1.297c-0.12,0-0.217-0.116-0.217-0.261l0,0
		c0-0.144,0.097-0.261,0.217-0.261h1.297C12.233,32.795,12.33,32.912,12.33,33.056L12.33,33.056z"/>
	<path fill="#FFFFFF" d="M11.689,30.708c0,0-0.116-0.069-0.159-0.081c-0.021-0.006-0.066-0.015-0.088-0.009
		c-0.056,0.016-0.195,0.126-0.195,0.126l-0.385-0.087l-0.103-0.253l0.094-0.131l0.114-0.104c0,0,0.109-0.046,0.146-0.057
		c0.038-0.012,0.116-0.029,0.155-0.033c0.101-0.008,0.372-0.002,0.372-0.002l0.19,0.038l0.119,0.076l0.101,0.081l0.125,0.122
		L11.689,30.708z"/>
	<path fill="#FFFFFF" d="M12.051,31.075"/>
	<path fill="#FFFFFF" d="M22.799,34.512c0,0.15-0.133,0.272-0.295,0.272l0,0c-0.162,0-0.293-0.122-0.293-0.272v-4.088
		c0-0.15,0.131-0.271,0.293-0.271l0,0c0.162,0,0.295,0.121,0.295,0.271V34.512z"/>
	<path fill="#FFFFFF" d="M18.568,34.443c0,0.165,0.137,0.299,0.309,0.299h1.584c0.17,0,0.309-0.134,0.309-0.299l0,0
		c0-0.165-0.139-0.299-0.309-0.299h-1.584C18.705,34.145,18.568,34.278,18.568,34.443L18.568,34.443z"/>
	<path fill="#FFFFFF" d="M18.451,30.41c0,0.165,0.137,0.299,0.309,0.299h1.584c0.17,0,0.309-0.134,0.309-0.299l0,0
		c0-0.165-0.139-0.299-0.309-0.299H18.76C18.588,30.111,18.451,30.245,18.451,30.41L18.451,30.41z"/>
	<path fill="#FFFFFF" d="M18.277,33.793c-0.066,0.099-0.008,0.256,0.131,0.351l0,0c0.141,0.095,0.309,0.092,0.375-0.007l2.094-3.081
		c0.066-0.099,0.006-0.255-0.133-0.35l0,0c-0.141-0.096-0.307-0.093-0.375,0.006L18.277,33.793z"/>
	<path fill="#FFFFFF" d="M20.918,30.678c0.051,0.275-0.115,0.619-0.256,0.619c-0.143,0-0.256-0.248-0.256-0.555
		c0-0.306-0.078-0.621,0.064-0.621C20.611,30.121,20.861,30.377,20.918,30.678z"/>
	<path fill="#FFFFFF" d="M18.223,34.186c-0.061-0.236,0.115-0.619,0.256-0.619c0.143,0,0.299,0.282,0.299,0.588
		c0,0.307,0.242,0.588,0.102,0.588C18.736,34.742,18.299,34.485,18.223,34.186z"/>
	<path fill="none" stroke="#FFFFFF" stroke-width="4" stroke-miterlimit="10" d="M16.771,33.461c0,0.661-0.52,1.197-1.162,1.197l0,0
		c-0.642,0-1.162-0.536-1.162-1.197v-2.072c0-0.662,0.521-1.198,1.162-1.198l0,0c0.642,0,1.162,0.536,1.162,1.198V33.461z"/>
	<g>
		<g>
			<rect x="14.851" y="8" fill="#FFFFFF" width="0.456" height="19.205"/>
			<rect x="16.775" y="22.662" fill="#FFFFFF" width="0.455" height="2.782"/>
			<rect x="15.856" y="22.746" fill="#FFFFFF" width="0.457" height="3.564"/>
			<rect x="15.97" y="9.88" fill="#FFFFFF" width="0.458" height="2.783"/>
			<polygon fill="#FFFFFF" points="17.453,15.857 17.01,15.857 17.01,13.162 17.453,13.437 			"/>
			
				<rect x="21.861" y="19.596" transform="matrix(0.7536 0.6573 -0.6573 0.7536 19.185 -9.3677)" fill="#FFFFFF" width="0.456" height="2.625"/>
			<rect x="18.047" y="21.618" fill="#FFFFFF" width="2.967" height="0.457"/>
			<rect x="19.145" y="19.539" fill="#FFFFFF" width="2.391" height="0.457"/>
			<polygon fill="#FFFFFF" points="20.688,18.626 20.346,18.289 22.863,15.554 23.199,15.863 			"/>
			
				<rect x="20.162" y="14.037" transform="matrix(0.7364 0.6765 -0.6765 0.7364 16.0333 -9.6408)" fill="#FFFFFF" width="0.456" height="3.44"/>
			
				<rect x="17.927" y="17.745" transform="matrix(0.6596 0.7516 -0.7516 0.6596 20.8672 -6.9946)" fill="#FFFFFF" width="0.456" height="3.588"/>
			
				<rect x="17.208" y="16.488" transform="matrix(0.6675 0.7446 -0.7446 0.6675 18.9755 -7.0983)" fill="#FFFFFF" width="0.456" height="2.424"/>
			<path fill="#FFFFFF" d="M15.38,7.537c-0.021,0.021-0.24,0.065-0.355,0.169c-0.139,0.126-0.174,0.313-0.174,0.313v0.139
				l0.529-0.017c0,0,0.53-0.107,0.709-0.122c0.326-0.028,0.984-0.036,1.309,0c0.258,0.028,0.676,0.139,0.887,0.229
				c0.068,0.028,0.193,0.104,0.258,0.138c0.072,0.039,0.223,0.106,0.295,0.147c0.08,0.046,0.236,0.146,0.309,0.203
				c0.07,0.055,0.291,0.202,0.355,0.261c0.096,0.087,0.297,0.311,0.297,0.311s0.172,0.302,0.215,0.418
				c0.029,0.078,0.049,0.248,0.064,0.326c0.025,0.116,0.072,0.445,0.072,0.445s0.986-0.045,1.311,0
				c0.104,0.015,0.307,0.071,0.4,0.114c0.1,0.045,0.293,0.149,0.375,0.221c0.072,0.062,0.311,0.267,0.311,0.267l0.303,0.325
				l0.252,0.414c0,0,0.123,0.319,0.172,0.423s0.115,0.3,0.164,0.403c0.076,0.162,0.252,0.496,0.314,0.67c0,0,0.166,0.537,0.207,0.72
				c0.061,0.264-0.023,0.82,0.047,1.082c0.045,0.175,0.309,0.451,0.365,0.622c0.049,0.14,0.023,0.589,0.023,0.589l-0.063,0.5
				c0,0-0.129,0.378-0.188,0.506c-0.096,0.205-0.424,0.831-0.424,0.831l-0.283,0.424c0,0,0.117,0.298,0.141,0.314
				c0.025,0.017,0.109,0.424,0.109,0.424v0.348l-0.055,0.304l-0.076,0.111l-0.055,0.109l-0.174,0.326l-0.326,0.467l-0.281,0.392
				l-0.402,0.564l-0.701,0.636l-0.506,0.311l-0.348,0.119l-0.33,0.055h-2.018v0.485h2.018l0.352-0.073l0.506-0.139l0.676-0.473
				l0.758-0.726l0.398-0.524l0.311-0.479l0.318-0.439l0.107-0.18l0.113-0.212l0.082-0.171l0.072-0.261v-0.147V19.08L24.07,18.9
				l-0.084-0.27l0.189-0.269l0.156-0.317l0.088-0.18l0.137-0.263l0.084-0.3l0.115-0.256l0.09-0.355c0,0,0.08-0.303,0.08-0.411
				c0-0.121-0.08-0.505-0.08-0.505l-0.066-0.202l-0.057-0.153l-0.131-0.195l-0.172-0.196c0,0,0.041-0.779,0-1.035
				c-0.014-0.093-0.113-0.358-0.113-0.358l-0.123-0.351l-0.203-0.521l-0.195-0.465l-0.203-0.48l-0.295-0.527
				c0,0-0.242-0.368-0.342-0.476c-0.072-0.078-0.24-0.207-0.326-0.27c-0.104-0.076-0.324-0.21-0.439-0.269
				c-0.078-0.039-0.238-0.098-0.318-0.131c-0.049-0.02-0.195-0.081-0.195-0.081l-0.359-0.057l-0.746-0.064l-0.027-0.132
				c0,0-0.049-0.204-0.074-0.269c-0.055-0.14-0.207-0.399-0.293-0.521c-0.082-0.116-0.277-0.323-0.375-0.425
				c-0.084-0.085-0.264-0.246-0.359-0.317c-0.068-0.052-0.217-0.136-0.287-0.185C19.1,8.063,19.061,8.026,19.014,8
				c-0.051-0.029-0.262-0.123-0.262-0.123l-0.238-0.108c0,0-0.244-0.104-0.314-0.131c-0.086-0.032-0.389-0.101-0.389-0.101H15.38"/>
			<path fill="#FFFFFF" d="M24.332,17.352"/>
			<polygon fill="#FFFFFF" points="18.064,21.618 18.318,22.075 17.137,23.072 16.775,22.662 			"/>
			<polygon fill="#FFFFFF" points="21.4,22.05 20.955,22.075 20.955,21.618 21.459,21.618 			"/>
			<polygon fill="#FFFFFF" points="17.23,13.918 17.459,13.445 16.293,12.214 15.97,12.663 			"/>
			<polygon fill="#FFFFFF" points="18.076,16.393 18.297,15.926 17.324,15.469 17.01,15.86 			"/>
			<polygon fill="#FFFFFF" points="18.188,16.722 18.154,17.177 19.393,17.177 19.221,16.689 			"/>
			<polygon fill="#FFFFFF" points="19.357,18.171 19.266,18.598 20.688,18.626 20.5,18.135 			"/>
			<polygon fill="#FFFFFF" points="21.207,19.539 22.252,18.503 22.6,18.858 21.535,19.996 			"/>
			<polygon fill="#FFFFFF" points="19.393,19.996 19.057,20.685 18.666,20.488 19.029,19.539 19.393,19.539 			"/>
			<path fill="#FFFFFF" d="M17.23,20.656l-0.455,0.637c0,0-0.291,0.508-0.348,0.679c-0.066,0.197-0.115,0.774-0.115,0.774h-0.457
				c0,0-0.015-0.302,0-0.4c0.039-0.264,0.232-0.768,0.343-1.01c0.094-0.206,0.459-0.783,0.459-0.783L17.23,20.656z"/>
			<path fill="#FFFFFF" d="M17.361,11.195h1.129c0,0,0.43,0.102,0.539,0.195c0.094,0.082,0.236,0.44,0.236,0.44l0.127,0.326
				c0,0,0.018,0.162,0,0.212c-0.061,0.165-0.449,0.538-0.449,0.538l0.322,0.342c0,0,0.441-0.413,0.541-0.586
				c0.057-0.1,0.098-0.32,0.082-0.449c-0.018-0.14-0.184-0.481-0.236-0.611c-0.066-0.162-0.258-0.467-0.387-0.587
				c-0.104-0.096-0.354-0.246-0.492-0.277c-0.344-0.076-1.412,0-1.412,0V11.195z"/>
			<path fill="#FFFFFF" d="M20.818,12.532c0,0,0.682-0.036,0.904,0c0.078,0.013,0.229,0.076,0.285,0.131
				c0.299,0.281,0.572,1.09,0.734,1.467c0.084,0.198,0.219,0.616,0.229,0.831c0.006,0.15-0.107,0.593-0.107,0.593l0.336,0.31
				c0,0,0.209-0.448,0.244-0.608c0.027-0.124,0.02-0.381,0-0.506c-0.031-0.194-0.244-0.75-0.244-0.75s-0.131-0.396-0.197-0.57
				c-0.07-0.183-0.291-0.67-0.402-0.831c-0.107-0.16-0.439-0.396-0.625-0.457c-0.273-0.09-1.156,0-1.156,0V12.532z"/>
		</g>
		<g>
			<rect x="13.853" y="8.019" fill="#FFFFFF" width="0.457" height="19.205"/>
			<rect x="11.929" y="22.681" fill="#FFFFFF" width="0.456" height="2.783"/>
			<rect x="12.848" y="22.765" fill="#FFFFFF" width="0.456" height="3.565"/>
			<rect x="12.734" y="9.899" fill="#FFFFFF" width="0.456" height="2.782"/>
			<polygon fill="#FFFFFF" points="11.708,15.877 12.15,15.877 12.15,13.182 11.708,13.455 			"/>
			
				<rect x="6.843" y="19.616" transform="matrix(-0.7546 0.6562 -0.6562 -0.7546 26.1408 32.0794)" fill="#FFFFFF" width="0.457" height="2.625"/>
			<rect x="8.147" y="21.638" fill="#FFFFFF" width="2.967" height="0.456"/>
			<rect x="7.625" y="19.559" fill="#FFFFFF" width="2.391" height="0.457"/>
			<polygon fill="#FFFFFF" points="8.472,18.646 8.816,18.308 6.297,15.573 5.961,15.883 			"/>
			
				<rect x="8.543" y="14.057" transform="matrix(-0.7354 0.6777 -0.6777 -0.7354 25.912 21.4342)" fill="#FFFFFF" width="0.457" height="3.44"/>
			
				<rect x="10.778" y="17.765" transform="matrix(-0.6596 0.7516 -0.7516 -0.6596 32.9661 24.1862)" fill="#FFFFFF" width="0.456" height="3.587"/>
			
				<rect x="11.496" y="16.508" transform="matrix(-0.6675 0.7446 -0.7446 -0.6675 32.7445 20.8178)" fill="#FFFFFF" width="0.456" height="2.423"/>
			<path fill="#FFFFFF" d="M13.78,7.557c0.021,0.021,0.241,0.064,0.356,0.169c0.139,0.125,0.174,0.313,0.174,0.313v0.138L13.78,8.16
				c0,0-0.53-0.107-0.709-0.122c-0.326-0.028-0.983-0.036-1.31,0c-0.257,0.027-0.675,0.139-0.886,0.228
				c-0.067,0.028-0.194,0.104-0.259,0.139c-0.072,0.039-0.222,0.106-0.293,0.146c-0.081,0.046-0.237,0.146-0.31,0.204
				C9.945,8.81,9.723,8.957,9.658,9.016c-0.096,0.086-0.296,0.31-0.296,0.31S9.191,9.628,9.147,9.744
				C9.118,9.822,9.098,9.992,9.082,10.07c-0.023,0.115-0.07,0.445-0.07,0.445s-0.987-0.046-1.313,0
				c-0.103,0.015-0.305,0.071-0.399,0.114c-0.099,0.045-0.292,0.149-0.375,0.22c-0.072,0.063-0.31,0.267-0.31,0.267L6.31,11.441
				l-0.251,0.415c0,0-0.124,0.319-0.173,0.423c-0.049,0.103-0.114,0.299-0.163,0.402c-0.076,0.163-0.252,0.497-0.315,0.671
				c0,0-0.164,0.537-0.206,0.72c-0.061,0.264,0.022,0.82-0.046,1.082c-0.047,0.174-0.309,0.451-0.367,0.622
				c-0.048,0.14-0.021,0.589-0.021,0.589l0.063,0.499c0,0,0.128,0.379,0.188,0.507c0.095,0.205,0.424,0.831,0.424,0.831l0.282,0.423
				c0,0-0.117,0.299-0.142,0.315c-0.024,0.016-0.108,0.424-0.108,0.424v0.348l0.055,0.304l0.076,0.111l0.054,0.108l0.174,0.326
				l0.326,0.468l0.283,0.391l0.402,0.565l0.7,0.636l0.506,0.31l0.348,0.12l0.33,0.055h2.017v0.485H8.727l-0.352-0.073L7.87,23.379
				l-0.677-0.473l-0.758-0.726l-0.396-0.524l-0.313-0.479l-0.318-0.44l-0.105-0.179l-0.114-0.212l-0.081-0.172l-0.074-0.261v-0.146
				V19.1l0.058-0.18l0.084-0.27l-0.19-0.269L4.83,18.064l-0.09-0.18l-0.136-0.264L4.52,17.322l-0.114-0.256l-0.09-0.355
				c0,0-0.082-0.303-0.082-0.411c0-0.121,0.082-0.505,0.082-0.505l0.065-0.202l0.057-0.153l0.131-0.196l0.171-0.195
				c0,0-0.04-0.779,0-1.035c0.015-0.093,0.114-0.358,0.114-0.358l0.122-0.351l0.204-0.521l0.195-0.465l0.204-0.481l0.293-0.526
				c0,0,0.243-0.368,0.343-0.476c0.071-0.078,0.24-0.207,0.326-0.27c0.104-0.076,0.325-0.211,0.439-0.269
				c0.077-0.039,0.239-0.098,0.318-0.131c0.049-0.021,0.195-0.081,0.195-0.081l0.359-0.058L8.6,9.963l0.028-0.132
				c0,0,0.048-0.204,0.073-0.27C8.756,9.423,8.909,9.163,8.995,9.04C9.076,8.924,9.271,8.718,9.37,8.616
				C9.454,8.53,9.632,8.37,9.728,8.299c0.069-0.052,0.218-0.137,0.288-0.186c0.045-0.03,0.084-0.067,0.131-0.095
				c0.051-0.028,0.261-0.122,0.261-0.122l0.239-0.108c0,0,0.244-0.104,0.315-0.131c0.085-0.033,0.389-0.101,0.389-0.101H13.78"/>
			<path fill="#FFFFFF" d="M4.83,17.371"/>
			<polygon fill="#FFFFFF" points="11.095,21.638 10.842,22.094 12.024,23.091 12.385,22.681 			"/>
			<polygon fill="#FFFFFF" points="7.759,22.069 8.206,22.094 8.206,21.638 7.702,21.638 			"/>
			<polygon fill="#FFFFFF" points="11.929,13.938 11.701,13.464 12.868,12.232 13.19,12.682 			"/>
			<polygon fill="#FFFFFF" points="11.083,16.412 10.864,15.945 11.835,15.487 12.152,15.88 			"/>
			<polygon fill="#FFFFFF" points="10.974,16.741 11.005,17.196 9.768,17.196 9.94,16.709 			"/>
			<polygon fill="#FFFFFF" points="9.802,18.19 9.895,18.617 8.472,18.646 8.66,18.154 			"/>
			<polygon fill="#FFFFFF" points="7.954,19.559 6.908,18.522 6.56,18.878 7.625,20.016 			"/>
			<polygon fill="#FFFFFF" points="9.768,20.016 10.104,20.703 10.495,20.508 10.131,19.559 9.768,19.559 			"/>
			<path fill="#FFFFFF" d="M11.929,20.676l0.456,0.637c0,0,0.291,0.508,0.349,0.679c0.065,0.196,0.114,0.773,0.114,0.773h0.456
				c0,0,0.015-0.301,0-0.4c-0.039-0.264-0.231-0.767-0.343-1.009c-0.094-0.206-0.459-0.783-0.459-0.783L11.929,20.676z"/>
			<path fill="#FFFFFF" d="M11.799,11.215h-1.13c0,0-0.43,0.102-0.538,0.195c-0.095,0.082-0.236,0.44-0.236,0.44l-0.127,0.326
				c0,0-0.018,0.162,0,0.212c0.06,0.164,0.449,0.537,0.449,0.537l-0.322,0.343c0,0-0.442-0.413-0.542-0.587
				c-0.057-0.099-0.097-0.319-0.081-0.449c0.017-0.139,0.183-0.481,0.236-0.61c0.067-0.162,0.259-0.467,0.387-0.587
				c0.104-0.097,0.354-0.247,0.492-0.277c0.345-0.076,1.412,0,1.412,0V11.215z"/>
			<path fill="#FFFFFF" d="M8.342,12.552c0,0-0.682-0.037-0.904,0c-0.078,0.012-0.229,0.076-0.285,0.13
				c-0.298,0.282-0.573,1.09-0.734,1.468c-0.084,0.198-0.218,0.615-0.228,0.831c-0.007,0.15,0.106,0.593,0.106,0.593l-0.336,0.31
				c0,0-0.208-0.449-0.243-0.609c-0.027-0.123-0.021-0.38,0-0.505c0.03-0.194,0.243-0.75,0.243-0.75s0.13-0.396,0.196-0.57
				c0.07-0.183,0.293-0.67,0.402-0.832c0.108-0.16,0.441-0.396,0.625-0.456c0.275-0.09,1.157,0,1.157,0V12.552z"/>
		</g>
	</g>
</g>
</svg>
