<?xml version="1.0" encoding="utf-8"?>
<!-- Generator: Adobe Illustrator 16.0.0, SVG Export Plug-In . SVG Version: 6.00 Build 0)  -->
<!DOCTYPE svg PUBLIC "-//W3C//DTD SVG 1.1//EN" "http://www.w3.org/Graphics/SVG/1.1/DTD/svg11.dtd">
<svg version="1.1" id="Camada_1" xmlns="http://www.w3.org/2000/svg" xmlns:xlink="http://www.w3.org/1999/xlink" x="0px" y="0px"
	 width="1000px" height="1000px" viewBox="0 0 1000 1000" enable-background="new 0 0 1000 1000" xml:space="preserve">
<g>
	<path fill="#FFFFFF" d="M791.012,673.512c0,1.012-0.821,1.833-1.834,1.833l0,0c-1.012,0-1.833-0.821-1.833-1.833v-30.334
		c0-1.012,0.821-1.833,1.833-1.833l0,0c1.013,0,1.834,0.821,1.834,1.833V673.512z"/>
	<path fill="#FFFFFF" d="M787.345,673.502c0,1.104,0.672,1.999,1.5,1.999h14.333c0.828,0,1.5-0.896,1.5-1.999l0,0
		c0-1.104-0.672-1.999-1.5-1.999h-14.333C788.017,671.503,787.345,672.398,787.345,673.502L787.345,673.502z"/>
	<path fill="#FFFFFF" d="M814.859,674.743c-0.173,0.904,0.629,1.815,1.791,2.038l0,0c1.162,0.221,2.242-0.332,2.415-1.236
		l6.026-31.599c0.173-0.904-0.629-1.816-1.791-2.038l0,0c-1.162-0.222-2.242,0.332-2.415,1.237L814.859,674.743z"/>
	<path fill="#FFFFFF" d="M834.053,675.552c0.166,0.905,1.243,1.465,2.406,1.251l0,0c1.165-0.215,1.971-1.123,1.805-2.028
		l-5.821-31.637c-0.166-0.906-1.243-1.466-2.407-1.251l0,0c-1.163,0.214-1.969,1.122-1.804,2.027L834.053,675.552z"/>
	<path fill="#FFFFFF" d="M833.248,662.837c0,1.104-0.746,1.999-1.667,1.999h-9.938c-0.921,0-1.667-0.896-1.667-1.999l0,0
		c0-1.105,0.746-2.001,1.667-2.001h9.938C832.502,660.836,833.248,661.731,833.248,662.837L833.248,662.837z"/>
	<path fill="#FFFFFF" d="M828.331,644.831c0,0-0.889-0.525-1.216-0.62c-0.162-0.047-0.509-0.107-0.672-0.063
		c-0.43,0.119-1.502,0.964-1.502,0.964l-2.951-0.669l-0.782-1.938l0.72-1.004l0.875-0.79c0,0,0.836-0.352,1.125-0.438
		c0.291-0.087,0.885-0.226,1.188-0.25c0.771-0.063,2.854-0.021,2.854-0.021l1.458,0.291l0.917,0.584l0.771,0.623l0.957,0.938
		L828.331,644.831z"/>
	<path fill="#FFFFFF" d="M831.115,647.648"/>
	<path fill="#FFFFFF" d="M913.511,674.001c0,1.15-1.007,2.083-2.249,2.083l0,0c-1.243,0-2.25-0.933-2.25-2.083v-31.346
		c0-1.15,1.007-2.083,2.25-2.083l0,0c1.242,0,2.249,0.933,2.249,2.083V674.001z"/>
	<path fill="#FFFFFF" d="M881.076,673.477c0,1.266,1.06,2.291,2.367,2.291h12.142c1.307,0,2.366-1.025,2.366-2.291l0,0
		c0-1.265-1.06-2.29-2.366-2.29h-12.142C882.136,671.187,881.076,672.212,881.076,673.477L881.076,673.477z"/>
	<path fill="#FFFFFF" d="M880.178,642.55c0,1.266,1.06,2.291,2.367,2.291h12.142c1.307,0,2.366-1.025,2.366-2.291l0,0
		c0-1.265-1.06-2.29-2.366-2.29h-12.142C881.237,640.26,880.178,641.285,880.178,642.55L880.178,642.55z"/>
	<path fill="#FFFFFF" d="M878.848,668.489c-0.512,0.754-0.06,1.956,1.012,2.683l0,0c1.072,0.729,2.357,0.708,2.869-0.047
		l16.046-23.624c0.512-0.754,0.058-1.957-1.015-2.685l0,0c-1.071-0.729-2.354-0.706-2.866,0.048L878.848,668.489z"/>
	<path fill="#FFFFFF" d="M899.098,644.603c0.393,2.108-0.88,4.745-1.966,4.745s-1.966-1.902-1.966-4.25s-0.586-4.764,0.5-4.764
		S898.668,642.295,899.098,644.603z"/>
	<path fill="#FFFFFF" d="M878.429,671.499c-0.459-1.814,0.88-4.745,1.966-4.745s2.284,2.159,2.284,4.507s1.865,4.507,0.779,4.507
		S879.01,673.797,878.429,671.499z"/>
	<path fill="none" stroke="#FFFFFF" stroke-width="4" stroke-miterlimit="10" d="M867.303,665.939c0,5.073-3.988,9.186-8.907,9.186
		l0,0c-4.92,0-8.907-4.112-8.907-9.186v-15.89c0-5.073,3.987-9.185,8.907-9.185l0,0c4.919,0,8.907,4.111,8.907,9.185V665.939z"/>
	<g>
		<g>
			<rect x="852.578" y="470.725" fill="#FFFFFF" width="3.5" height="147.25"/>
			<rect x="867.329" y="583.143" fill="#FFFFFF" width="3.5" height="21.334"/>
			<rect x="860.287" y="583.786" fill="#FFFFFF" width="3.5" height="27.333"/>
			<rect x="861.163" y="485.143" fill="#FFFFFF" width="3.5" height="21.334"/>
			<polygon fill="#FFFFFF" points="872.524,530.975 869.134,530.975 869.134,510.309 872.524,512.407 			"/>
			
				<rect x="906.326" y="559.635" transform="matrix(0.7549 0.6559 -0.6559 0.7549 596.2208 -455.9249)" fill="#FFFFFF" width="3.501" height="20.131"/>
			<rect x="877.078" y="575.143" fill="#FFFFFF" width="22.751" height="3.5"/>
			<rect x="885.495" y="559.202" fill="#FFFFFF" width="18.334" height="3.5"/>
			<polygon fill="#FFFFFF" points="897.334,552.199 894.703,549.611 914.013,528.646 916.587,531.017 			"/>
			
				<rect x="893.295" y="517.014" transform="matrix(0.7354 0.6776 -0.6776 0.7354 596.1244 -466.2244)" fill="#FFFFFF" width="3.5" height="26.377"/>
			
				<rect x="876.162" y="545.448" transform="matrix(0.6605 0.7509 -0.7509 0.6605 717.9718 -469.3193)" fill="#FFFFFF" width="3.5" height="27.506"/>
			
				<rect x="870.649" y="535.808" transform="matrix(0.667 0.7451 -0.7451 0.667 696.6733 -468.4765)" fill="#FFFFFF" width="3.501" height="18.579"/>
			<path fill="#FFFFFF" d="M856.641,467.18c-0.157,0.159-1.847,0.498-2.729,1.295c-1.063,0.961-1.333,2.393-1.333,2.393v1.063
				l4.063-0.125c0,0,4.063-0.82,5.438-0.938c2.5-0.214,7.542-0.273,10.036,0c1.969,0.217,5.181,1.066,6.797,1.75
				c0.518,0.219,1.485,0.797,1.979,1.063c0.554,0.298,1.703,0.813,2.25,1.125c0.617,0.352,1.818,1.121,2.375,1.563
				c0.529,0.419,2.228,1.549,2.729,2c0.733,0.66,2.271,2.375,2.271,2.375s1.311,2.314,1.646,3.209c0.225,0.6,0.376,1.9,0.5,2.5
				c0.184,0.889,0.542,3.416,0.542,3.416s7.571-0.35,10.063,0c0.788,0.11,2.338,0.545,3.063,0.875
				c0.759,0.346,2.24,1.146,2.875,1.688c0.557,0.474,2.375,2.045,2.375,2.045l2.333,2.494l1.923,3.18c0,0,0.953,2.446,1.327,3.237
				c0.376,0.793,0.875,2.297,1.25,3.091c0.589,1.247,1.932,3.807,2.417,5.141c0,0,1.264,4.119,1.583,5.519
				c0.462,2.022-0.175,6.287,0.354,8.294c0.354,1.339,2.364,3.463,2.813,4.773c0.365,1.068,0.167,4.511,0.167,4.511l-0.479,3.833
				c0,0-0.98,2.899-1.438,3.883c-0.731,1.573-3.25,6.371-3.25,6.371l-2.167,3.246c0,0,0.896,2.287,1.084,2.412
				s0.833,3.25,0.833,3.25v2.666l-0.417,2.327l-0.583,0.856l-0.417,0.834l-1.333,2.5l-2.5,3.583l-2.167,3l-3.083,4.333l-5.375,4.871
				l-3.875,2.379l-2.667,0.917l-2.53,0.417h-15.463v3.725h15.463l2.697-0.563l3.875-1.063l5.188-3.625l5.813-5.563l3.044-4.02
				l2.394-3.668l2.438-3.375l0.813-1.375l0.875-1.625l0.625-1.313l0.563-2v-1.125v-5.125l-0.438-1.375l-0.645-2.065l1.457-2.06
				l1.188-2.438l0.688-1.375l1.042-2.018l0.646-2.295l0.875-1.961l0.688-2.727c0,0,0.625-2.323,0.625-3.153
				c0-0.926-0.625-3.868-0.625-3.868l-0.5-1.555l-0.438-1.174l-1-1.5l-1.313-1.5c0,0,0.305-5.977,0-7.938
				c-0.11-0.713-0.875-2.75-0.875-2.75l-0.938-2.688l-1.563-4l-1.5-3.563l-1.563-3.688l-2.25-4.041c0,0-1.865-2.819-2.625-3.646
				c-0.548-0.597-1.847-1.584-2.5-2.063c-0.798-0.584-2.493-1.615-3.375-2.063c-0.588-0.297-1.829-0.748-2.438-1
				c-0.375-0.155-1.5-0.625-1.5-0.625l-2.75-0.438l-5.727-0.488l-0.211-1.012c0,0-0.368-1.564-0.563-2.063
				c-0.418-1.068-1.592-3.061-2.25-4c-0.622-0.889-2.119-2.472-2.875-3.25c-0.64-0.658-2.014-1.888-2.75-2.438
				c-0.525-0.393-1.67-1.043-2.208-1.416c-0.342-0.238-0.639-0.521-1-0.727c-0.39-0.223-2-0.94-2-0.94l-1.834-0.833
				c0,0-1.869-0.791-2.416-1c-0.655-0.252-2.979-0.771-2.979-0.771H856.641"/>
			<path fill="#FFFFFF" d="M925.266,542.43"/>
			<polygon fill="#FFFFFF" points="877.221,575.143 879.162,578.643 870.104,586.286 867.329,583.143 			"/>
			<polygon fill="#FFFFFF" points="902.798,578.448 899.381,578.643 899.381,575.143 903.245,575.143 			"/>
			<polygon fill="#FFFFFF" points="870.829,516.1 872.579,512.475 863.634,503.033 861.163,506.477 			"/>
			<polygon fill="#FFFFFF" points="877.312,535.076 878.997,531.495 871.547,527.989 869.125,530.993 			"/>
			<polygon fill="#FFFFFF" points="878.153,537.598 877.912,541.09 887.397,541.09 886.083,537.35 			"/>
			<polygon fill="#FFFFFF" points="887.134,548.708 886.425,551.984 897.334,552.199 895.896,548.431 			"/>
			<polygon fill="#FFFFFF" points="901.313,559.201 909.329,551.254 911.995,553.979 903.829,562.702 			"/>
			<polygon fill="#FFFFFF" points="887.397,562.702 884.823,567.979 881.829,566.479 884.613,559.202 887.397,559.201 			"/>
			<path fill="#FFFFFF" d="M870.829,567.768l-3.5,4.879c0,0-2.23,3.895-2.666,5.203c-0.503,1.512-0.876,5.937-0.876,5.937h-3.5
				c0,0-0.112-2.312,0-3.071c0.299-2.021,1.777-5.878,2.626-7.735c0.724-1.582,3.52-6.005,3.52-6.005L870.829,567.768z"/>
			<path fill="#FFFFFF" d="M871.828,495.225h8.659c0,0,3.296,0.782,4.126,1.5c0.725,0.627,1.812,3.375,1.812,3.375l0.973,2.5
				c0,0,0.139,1.243,0,1.625c-0.458,1.263-3.444,4.125-3.444,4.125l2.472,2.625c0,0,3.393-3.17,4.153-4.498
				c0.435-0.759,0.746-2.451,0.625-3.443c-0.13-1.065-1.4-3.692-1.812-4.684c-0.516-1.244-1.981-3.581-2.967-4.5
				c-0.791-0.738-2.715-1.891-3.771-2.125c-2.643-0.585-10.826,0-10.826,0V495.225z"/>
			<path fill="#FFFFFF" d="M898.328,505.475c0,0,5.227-0.279,6.938,0c0.594,0.097,1.75,0.589,2.187,1.002
				c2.284,2.161,4.394,8.355,5.625,11.248c0.647,1.521,1.676,4.724,1.75,6.375c0.052,1.153-0.815,4.546-0.815,4.546l2.574,2.371
				c0,0,1.597-3.439,1.866-4.667c0.208-0.946,0.151-2.918,0-3.875c-0.236-1.493-1.866-5.75-1.866-5.75s-0.999-3.043-1.509-4.375
				c-0.536-1.401-2.24-5.135-3.083-6.375c-0.834-1.228-3.382-3.04-4.792-3.5c-2.109-0.688-8.875,0-8.875,0V505.475z"/>
		</g>
		<g>
			<rect x="844.928" y="470.872" fill="#FFFFFF" width="3.5" height="147.25"/>
			<rect x="830.177" y="583.29" fill="#FFFFFF" width="3.5" height="21.334"/>
			<rect x="837.219" y="583.934" fill="#FFFFFF" width="3.5" height="27.333"/>
			<rect x="836.343" y="485.289" fill="#FFFFFF" width="3.5" height="21.335"/>
			<polygon fill="#FFFFFF" points="828.481,531.122 831.872,531.122 831.872,510.456 828.481,512.555 			"/>
			
				<rect x="791.179" y="559.782" transform="matrix(-0.7549 0.6559 -0.6559 -0.7549 1765.2395 479.9726)" fill="#FFFFFF" width="3.501" height="20.131"/>
			<rect x="801.177" y="575.29" fill="#FFFFFF" width="22.751" height="3.5"/>
			<rect x="797.177" y="559.35" fill="#FFFFFF" width="18.334" height="3.5"/>
			<polygon fill="#FFFFFF" points="803.672,552.347 806.303,549.759 786.993,528.793 784.419,531.164 			"/>
			
				<rect x="804.211" y="517.161" transform="matrix(-0.7354 0.6776 -0.6776 -0.7354 1758.0455 374.2115)" fill="#FFFFFF" width="3.5" height="26.377"/>
			
				<rect x="821.344" y="545.596" transform="matrix(-0.6605 0.7509 -0.7509 -0.6605 1786.7072 310.7451)" fill="#FFFFFF" width="3.5" height="27.506"/>
			
				<rect x="826.856" y="535.956" transform="matrix(-0.667 0.7451 -0.7451 -0.667 1787.5173 291.5308)" fill="#FFFFFF" width="3.501" height="18.579"/>
			<path fill="#FFFFFF" d="M844.365,467.327c0.157,0.159,1.847,0.498,2.729,1.295c1.063,0.961,1.333,2.393,1.333,2.393v1.063
				l-4.063-0.125c0,0-4.063-0.82-5.438-0.938c-2.5-0.214-7.542-0.274-10.036,0c-1.969,0.216-5.181,1.067-6.797,1.75
				c-0.518,0.219-1.485,0.796-1.979,1.063c-0.554,0.298-1.703,0.813-2.25,1.125c-0.617,0.353-1.818,1.121-2.375,1.563
				c-0.529,0.419-2.228,1.548-2.729,2c-0.733,0.659-2.271,2.375-2.271,2.375s-1.311,2.315-1.646,3.208
				c-0.225,0.601-0.376,1.902-0.5,2.5c-0.184,0.889-0.542,3.417-0.542,3.417s-7.571-0.349-10.063,0
				c-0.788,0.11-2.338,0.545-3.063,0.875c-0.759,0.346-2.24,1.147-2.875,1.688c-0.557,0.474-2.375,2.045-2.375,2.045l-2.333,2.494
				l-1.923,3.18c0,0-0.953,2.446-1.327,3.237c-0.376,0.793-0.875,2.297-1.25,3.091c-0.589,1.247-1.932,3.807-2.417,5.141
				c0,0-1.264,4.119-1.583,5.519c-0.462,2.022,0.175,6.287-0.354,8.294c-0.354,1.339-2.364,3.463-2.813,4.773
				c-0.365,1.068-0.167,4.511-0.167,4.511l0.479,3.833c0,0,0.98,2.899,1.438,3.883c0.731,1.573,3.25,6.371,3.25,6.371l2.167,3.246
				c0,0-0.896,2.287-1.084,2.412s-0.833,3.25-0.833,3.25v2.666l0.417,2.327l0.583,0.856l0.417,0.834l1.333,2.5l2.5,3.583l2.167,3
				l3.083,4.333l5.375,4.871l3.875,2.379l2.667,0.917l2.53,0.417h15.463v3.725h-15.463l-2.697-0.563l-3.875-1.063l-5.188-3.625
				l-5.813-5.563l-3.044-4.02l-2.394-3.668l-2.438-3.375l-0.813-1.375l-0.875-1.625l-0.625-1.313l-0.563-2v-1.125v-5.125
				l0.438-1.375l0.645-2.065l-1.457-2.06l-1.188-2.438l-0.688-1.375l-1.042-2.018l-0.646-2.295l-0.875-1.961l-0.688-2.727
				c0,0-0.625-2.323-0.625-3.153c0-0.926,0.625-3.868,0.625-3.868l0.5-1.555l0.438-1.174l1-1.5l1.313-1.5c0,0-0.305-5.977,0-7.938
				c0.11-0.713,0.875-2.75,0.875-2.75l0.938-2.688l1.563-4l1.5-3.563l1.563-3.688l2.25-4.041c0,0,1.865-2.819,2.625-3.646
				c0.548-0.597,1.847-1.583,2.5-2.063c0.798-0.585,2.493-1.616,3.375-2.063c0.588-0.298,1.829-0.749,2.438-1
				c0.375-0.155,1.5-0.625,1.5-0.625l2.75-0.438l5.727-0.487l0.211-1.013c0,0,0.368-1.565,0.563-2.063
				c0.418-1.068,1.592-3.06,2.25-4c0.622-0.89,2.119-2.472,2.875-3.25c0.64-0.659,2.014-1.888,2.75-2.438
				c0.525-0.393,1.67-1.042,2.208-1.417c0.342-0.238,0.639-0.52,1-0.726c0.39-0.222,2-0.94,2-0.94l1.834-0.833
				c0,0,1.869-0.79,2.416-1c0.655-0.251,2.979-0.771,2.979-0.771H844.365"/>
			<path fill="#FFFFFF" d="M775.74,542.577"/>
			<polygon fill="#FFFFFF" points="823.785,575.29 821.844,578.79 830.902,586.434 833.677,583.29 			"/>
			<polygon fill="#FFFFFF" points="798.208,578.596 801.625,578.79 801.625,575.29 797.761,575.29 			"/>
			<polygon fill="#FFFFFF" points="830.177,516.247 828.427,512.622 837.372,503.181 839.843,506.624 			"/>
			<polygon fill="#FFFFFF" points="823.694,535.224 822.009,531.643 829.459,528.137 831.881,531.141 			"/>
			<polygon fill="#FFFFFF" points="822.853,537.745 823.094,541.237 813.608,541.237 814.923,537.497 			"/>
			<polygon fill="#FFFFFF" points="813.872,548.855 814.581,552.132 803.672,552.347 805.109,548.578 			"/>
			<polygon fill="#FFFFFF" points="799.693,559.349 791.677,551.401 789.011,554.127 797.177,562.85 			"/>
			<polygon fill="#FFFFFF" points="813.608,562.85 816.183,568.127 819.177,566.627 816.393,559.35 813.608,559.349 			"/>
			<path fill="#FFFFFF" d="M830.177,567.915l3.5,4.879c0,0,2.23,3.895,2.666,5.203c0.503,1.512,0.876,5.937,0.876,5.937h3.5
				c0,0,0.112-2.312,0-3.071c-0.299-2.021-1.777-5.878-2.626-7.735c-0.724-1.582-3.52-6.005-3.52-6.005L830.177,567.915z"/>
			<path fill="#FFFFFF" d="M829.178,495.372h-8.659c0,0-3.296,0.782-4.126,1.5c-0.725,0.627-1.812,3.375-1.812,3.375l-0.973,2.5
				c0,0-0.139,1.243,0,1.625c0.458,1.263,3.444,4.125,3.444,4.125l-2.472,2.625c0,0-3.393-3.17-4.153-4.498
				c-0.435-0.759-0.746-2.451-0.625-3.443c0.13-1.065,1.4-3.692,1.812-4.684c0.516-1.244,1.981-3.581,2.967-4.5
				c0.791-0.737,2.715-1.892,3.771-2.125c2.643-0.585,10.826,0,10.826,0V495.372z"/>
			<path fill="#FFFFFF" d="M802.678,505.622c0,0-5.227-0.279-6.938,0c-0.594,0.097-1.75,0.589-2.187,1.002
				c-2.284,2.161-4.394,8.355-5.625,11.248c-0.647,1.521-1.676,4.724-1.75,6.375c-0.052,1.153,0.815,4.546,0.815,4.546l-2.574,2.371
				c0,0-1.597-3.439-1.866-4.667c-0.208-0.946-0.151-2.918,0-3.875c0.236-1.493,1.866-5.75,1.866-5.75s0.999-3.043,1.509-4.375
				c0.536-1.401,2.24-5.135,3.083-6.375c0.834-1.228,3.382-3.04,4.792-3.5c2.109-0.688,8.875,0,8.875,0V505.622z"/>
		</g>
	</g>
</g>
<g>
	<g>
		<rect x="583.432" y="489.182" fill="#FFFFFF" width="1.149" height="48.365"/>
		<rect x="588.276" y="526.106" fill="#FFFFFF" width="1.149" height="7.007"/>
		<rect x="585.964" y="526.318" fill="#FFFFFF" width="1.149" height="8.978"/>
		<rect x="586.251" y="493.918" fill="#FFFFFF" width="1.149" height="7.007"/>
		<polygon fill="#FFFFFF" points="589.982,508.972 588.869,508.972 588.869,502.184 589.982,502.873 		"/>
		
			<rect x="601.085" y="518.386" transform="matrix(0.755 0.6557 -0.6557 0.755 489.4396 -266.7015)" fill="#FFFFFF" width="1.15" height="6.612"/>
		<rect x="591.479" y="523.479" fill="#FFFFFF" width="7.473" height="1.15"/>
		<rect x="594.243" y="518.243" fill="#FFFFFF" width="6.021" height="1.149"/>
		<polygon fill="#FFFFFF" points="598.132,515.943 597.268,515.093 603.61,508.206 604.455,508.985 		"/>
		
			<rect x="596.805" y="504.386" transform="matrix(0.7354 0.6776 -0.6776 0.7354 502.8033 -270.1993)" fill="#FFFFFF" width="1.15" height="8.664"/>
		
			<rect x="591.178" y="513.725" transform="matrix(0.6602 0.7511 -0.7511 0.6602 590.3376 -268.3604)" fill="#FFFFFF" width="1.149" height="9.035"/>
		
			<rect x="589.367" y="510.559" transform="matrix(0.6665 0.7455 -0.7455 0.6665 579.6219 -268.5153)" fill="#FFFFFF" width="1.15" height="6.103"/>
		<path fill="#FFFFFF" d="M584.766,488.018c-0.052,0.053-0.606,0.164-0.896,0.426c-0.35,0.315-0.438,0.785-0.438,0.785v0.35
			l1.334-0.041c0,0,1.335-0.27,1.786-0.309c0.821-0.07,2.478-0.09,3.297,0c0.646,0.071,1.701,0.351,2.232,0.575
			c0.17,0.071,0.487,0.262,0.649,0.349c0.183,0.098,0.56,0.268,0.739,0.37c0.203,0.115,0.598,0.368,0.78,0.513
			c0.174,0.138,0.731,0.509,0.896,0.657c0.241,0.217,0.746,0.78,0.746,0.78s0.43,0.76,0.54,1.054
			c0.074,0.197,0.123,0.624,0.164,0.821c0.061,0.292,0.179,1.122,0.179,1.122s2.486-0.115,3.305,0
			c0.259,0.036,0.768,0.179,1.006,0.287c0.249,0.113,0.735,0.377,0.944,0.555c0.183,0.155,0.78,0.671,0.78,0.671l0.766,0.819
			l0.632,1.045c0,0,0.313,0.804,0.437,1.063s0.287,0.754,0.41,1.015c0.193,0.41,0.635,1.251,0.794,1.688c0,0,0.415,1.354,0.52,1.813
			c0.152,0.664-0.057,2.065,0.117,2.725c0.115,0.439,0.776,1.138,0.924,1.567c0.119,0.352,0.055,1.481,0.055,1.481l-0.158,1.26
			c0,0-0.321,0.952-0.472,1.275c-0.24,0.517-1.067,2.092-1.067,2.092l-0.712,1.066c0,0,0.294,0.752,0.356,0.793
			c0.062,0.041,0.273,1.067,0.273,1.067v0.875l-0.137,0.765l-0.192,0.281l-0.137,0.274l-0.438,0.821l-0.821,1.177l-0.712,0.985
			l-1.013,1.423l-1.766,1.6l-1.272,0.781l-0.876,0.302l-0.831,0.137h-5.079v1.224h5.079l0.886-0.185l1.273-0.35l1.703-1.19
			l1.909-1.827l1-1.32l0.786-1.204l0.801-1.109l0.267-0.451l0.288-0.534l0.205-0.431l0.185-0.657v-0.369v-1.684l-0.144-0.451
			l-0.212-0.679l0.479-0.677l0.39-0.801l0.227-0.451l0.342-0.663l0.212-0.753l0.288-0.645l0.226-0.896c0,0,0.205-0.763,0.205-1.036
			c0-0.304-0.205-1.271-0.205-1.271l-0.164-0.511l-0.145-0.385l-0.328-0.493l-0.431-0.492c0,0,0.1-1.964,0-2.607
			c-0.036-0.234-0.288-0.903-0.288-0.903l-0.308-0.883l-0.514-1.313l-0.492-1.171l-0.514-1.211l-0.738-1.327
			c0,0-0.613-0.926-0.862-1.197c-0.18-0.196-0.606-0.521-0.821-0.678c-0.262-0.192-0.819-0.53-1.108-0.678
			c-0.193-0.098-0.601-0.245-0.801-0.328c-0.123-0.051-0.493-0.205-0.493-0.205l-0.902-0.144l-1.881-0.161l-0.07-0.332
			c0,0-0.12-0.514-0.185-0.678c-0.137-0.351-0.522-1.005-0.738-1.313c-0.205-0.292-0.696-0.812-0.944-1.067
			c-0.211-0.217-0.662-0.62-0.903-0.801c-0.173-0.129-0.549-0.343-0.726-0.465c-0.112-0.078-0.21-0.171-0.328-0.239
			c-0.128-0.073-0.657-0.309-0.657-0.309l-0.603-0.273c0,0-0.613-0.26-0.793-0.328c-0.216-0.083-0.979-0.254-0.979-0.254H584.766"/>
		<path fill="#FFFFFF" d="M607.306,512.734"/>
		<polygon fill="#FFFFFF" points="591.525,523.479 592.163,524.629 589.188,527.139 588.276,526.106 		"/>
		<polygon fill="#FFFFFF" points="599.927,524.564 598.804,524.629 598.804,523.479 600.073,523.479 		"/>
		<polygon fill="#FFFFFF" points="589.426,504.086 590.001,502.896 587.063,499.794 586.251,500.925 		"/>
		<polygon fill="#FFFFFF" points="591.556,510.318 592.108,509.143 589.662,507.991 588.866,508.978 		"/>
		<polygon fill="#FFFFFF" points="591.832,511.146 591.753,512.294 594.868,512.294 594.437,511.065 		"/>
		<polygon fill="#FFFFFF" points="594.781,514.796 594.549,515.872 598.132,515.943 597.659,514.705 		"/>
		<polygon fill="#FFFFFF" points="599.438,518.243 602.071,515.633 602.947,516.527 600.265,519.393 		"/>
		<polygon fill="#FFFFFF" points="594.868,519.393 594.022,521.126 593.039,520.634 593.953,518.243 594.868,518.243 		"/>
		<path fill="#FFFFFF" d="M589.426,521.057l-1.149,1.603c0,0-0.732,1.279-0.876,1.709c-0.165,0.496-0.287,1.95-0.287,1.95h-1.149
			c0,0-0.037-0.76,0-1.01c0.098-0.663,0.583-1.93,0.862-2.54c0.237-0.52,1.156-1.973,1.156-1.973L589.426,521.057z"/>
		<path fill="#FFFFFF" d="M589.754,497.229h2.845c0,0,1.082,0.257,1.354,0.492c0.238,0.206,0.596,1.108,0.596,1.108l0.319,0.821
			c0,0,0.045,0.408,0,0.534c-0.15,0.414-1.132,1.354-1.132,1.354l0.813,0.862c0,0,1.114-1.041,1.364-1.478
			c0.143-0.249,0.245-0.805,0.205-1.131c-0.043-0.35-0.46-1.213-0.595-1.538c-0.17-0.409-0.651-1.177-0.975-1.479
			c-0.26-0.242-0.892-0.621-1.238-0.697c-0.868-0.192-3.557,0-3.557,0V497.229z"/>
		<path fill="#FFFFFF" d="M598.458,500.596c0,0,1.717-0.092,2.279,0c0.195,0.032,0.575,0.193,0.718,0.329
			c0.751,0.71,1.443,2.744,1.848,3.694c0.213,0.5,0.551,1.552,0.575,2.094c0.017,0.379-0.268,1.493-0.268,1.493l0.845,0.779
			c0,0,0.524-1.13,0.613-1.533c0.068-0.311,0.05-0.958,0-1.272c-0.077-0.49-0.613-1.889-0.613-1.889s-0.328-1-0.495-1.438
			c-0.176-0.46-0.736-1.687-1.013-2.094c-0.273-0.403-1.11-0.998-1.574-1.149c-0.692-0.226-2.915,0-2.915,0V500.596z"/>
	</g>
	<g>
		<rect x="580.919" y="489.23" fill="#FFFFFF" width="1.149" height="48.365"/>
		<rect x="576.073" y="526.155" fill="#FFFFFF" width="1.149" height="7.007"/>
		<rect x="578.387" y="526.366" fill="#FFFFFF" width="1.149" height="8.978"/>
		<rect x="578.099" y="493.966" fill="#FFFFFF" width="1.149" height="7.008"/>
		<polygon fill="#FFFFFF" points="575.517,509.02 576.63,509.02 576.63,502.232 575.517,502.921 		"/>
		
			<rect x="563.264" y="518.433" transform="matrix(-0.755 0.6557 -0.6557 -0.755 1331.6541 545.9814)" fill="#FFFFFF" width="1.15" height="6.613"/>
		<rect x="566.548" y="523.527" fill="#FFFFFF" width="7.473" height="1.149"/>
		<rect x="565.234" y="518.291" fill="#FFFFFF" width="6.021" height="1.15"/>
		<polygon fill="#FFFFFF" points="567.368,515.991 568.231,515.142 561.89,508.255 561.044,509.034 		"/>
		
			<rect x="567.545" y="504.435" transform="matrix(-0.735 0.6781 -0.6781 -0.735 1330.6655 497.4855)" fill="#FFFFFF" width="1.149" height="8.664"/>
		
			<rect x="573.172" y="513.774" transform="matrix(-0.6602 0.7511 -0.7511 -0.6602 1341.8169 429.519)" fill="#FFFFFF" width="1.149" height="9.035"/>
		
			<rect x="574.983" y="510.607" transform="matrix(-0.6674 0.7447 -0.7447 -0.6674 1342.2079 427.8727)" fill="#FFFFFF" width="1.15" height="6.103"/>
		<path fill="#FFFFFF" d="M580.733,488.066c0.052,0.052,0.607,0.163,0.896,0.425c0.35,0.315,0.438,0.786,0.438,0.786v0.349
			l-1.335-0.041c0,0-1.334-0.269-1.785-0.308c-0.821-0.07-2.478-0.09-3.297,0c-0.646,0.07-1.701,0.351-2.232,0.574
			c-0.17,0.072-0.488,0.262-0.65,0.35c-0.182,0.098-0.56,0.267-0.739,0.369c-0.202,0.116-0.597,0.368-0.779,0.514
			c-0.174,0.138-0.732,0.508-0.897,0.656c-0.24,0.217-0.745,0.78-0.745,0.78s-0.431,0.761-0.541,1.054
			c-0.073,0.197-0.123,0.625-0.164,0.821c-0.06,0.292-0.178,1.122-0.178,1.122s-2.487-0.114-3.306,0
			c-0.259,0.036-0.768,0.18-1.006,0.288c-0.249,0.113-0.735,0.377-0.943,0.554c-0.184,0.156-0.78,0.672-0.78,0.672l-0.767,0.819
			l-0.632,1.044c0,0-0.313,0.804-0.436,1.063c-0.124,0.261-0.287,0.755-0.411,1.016c-0.193,0.409-0.634,1.25-0.793,1.688
			c0,0-0.416,1.353-0.521,1.813c-0.151,0.664,0.058,2.064-0.116,2.724c-0.116,0.44-0.776,1.138-0.924,1.568
			c-0.12,0.351-0.055,1.481-0.055,1.481l0.157,1.259c0,0,0.322,0.952,0.472,1.275c0.241,0.517,1.068,2.093,1.068,2.093l0.711,1.066
			c0,0-0.294,0.751-0.355,0.792s-0.273,1.067-0.273,1.067v0.876l0.137,0.765l0.191,0.281l0.137,0.273l0.438,0.821l0.821,1.177
			l0.711,0.985l1.013,1.424l1.766,1.6l1.272,0.781l0.876,0.302l0.831,0.137h5.079v1.223h-5.079l-0.886-0.185l-1.272-0.349
			l-1.704-1.19l-1.909-1.827l-1-1.32l-0.786-1.205l-0.8-1.108l-0.268-0.451l-0.287-0.534l-0.205-0.431l-0.185-0.657v-0.369v-1.684
			l0.144-0.452l0.211-0.678l-0.479-0.677l-0.39-0.801l-0.226-0.451l-0.343-0.663l-0.212-0.754l-0.287-0.644l-0.226-0.896
			c0,0-0.206-0.763-0.206-1.035c0-0.304,0.206-1.271,0.206-1.271l0.164-0.511l0.144-0.386l0.328-0.492l0.432-0.493
			c0,0-0.101-1.963,0-2.607c0.036-0.233,0.287-0.902,0.287-0.902l0.308-0.883l0.514-1.314l0.492-1.17l0.514-1.211l0.739-1.327
			c0,0,0.612-0.927,0.862-1.198c0.18-0.195,0.606-0.52,0.821-0.678c0.262-0.191,0.818-0.53,1.108-0.677
			c0.192-0.098,0.601-0.246,0.8-0.329c0.124-0.051,0.493-0.205,0.493-0.205l0.903-0.144l1.881-0.16l0.069-0.332
			c0,0,0.121-0.515,0.185-0.678c0.138-0.351,0.523-1.005,0.739-1.313c0.204-0.293,0.696-0.813,0.944-1.068
			c0.21-0.216,0.661-0.619,0.903-0.8c0.173-0.13,0.548-0.343,0.725-0.466c0.112-0.078,0.21-0.171,0.329-0.238
			c0.128-0.073,0.656-0.309,0.656-0.309l0.603-0.274c0,0,0.614-0.259,0.794-0.328c0.215-0.083,0.979-0.253,0.979-0.253H580.733"/>
		<path fill="#FFFFFF" d="M558.193,512.782"/>
		<polygon fill="#FFFFFF" points="573.974,523.527 573.337,524.677 576.312,527.188 577.223,526.155 		"/>
		<polygon fill="#FFFFFF" points="565.573,524.613 566.695,524.677 566.695,523.527 565.426,523.527 		"/>
		<polygon fill="#FFFFFF" points="576.073,504.134 575.499,502.943 578.437,499.843 579.248,500.974 		"/>
		<polygon fill="#FFFFFF" points="573.944,510.367 573.391,509.191 575.838,508.039 576.633,509.026 		"/>
		<polygon fill="#FFFFFF" points="573.668,511.195 573.747,512.343 570.632,512.343 571.063,511.114 		"/>
		<polygon fill="#FFFFFF" points="570.718,514.845 570.951,515.921 567.368,515.991 567.84,514.754 		"/>
		<polygon fill="#FFFFFF" points="566.061,518.291 563.428,515.681 562.552,516.576 565.234,519.441 		"/>
		<polygon fill="#FFFFFF" points="570.632,519.441 571.477,521.175 572.46,520.682 571.546,518.291 570.632,518.291 		"/>
		<path fill="#FFFFFF" d="M576.073,521.104l1.149,1.603c0,0,0.733,1.279,0.876,1.709c0.165,0.497,0.288,1.95,0.288,1.95h1.149
			c0,0,0.037-0.759,0-1.009c-0.099-0.664-0.584-1.931-0.862-2.541c-0.238-0.52-1.156-1.972-1.156-1.972L576.073,521.104z"/>
		<path fill="#FFFFFF" d="M575.745,497.277h-2.844c0,0-1.083,0.257-1.355,0.493c-0.238,0.206-0.595,1.108-0.595,1.108l-0.319,0.821
			c0,0-0.046,0.408,0,0.533c0.15,0.415,1.131,1.355,1.131,1.355l-0.812,0.862c0,0-1.114-1.042-1.364-1.478
			c-0.143-0.249-0.245-0.806-0.205-1.131c0.042-0.351,0.46-1.213,0.595-1.539c0.169-0.408,0.65-1.176,0.975-1.478
			c0.26-0.242,0.892-0.621,1.238-0.698c0.868-0.192,3.556,0,3.556,0V497.277z"/>
		<path fill="#FFFFFF" d="M567.041,500.645c0,0-1.717-0.092-2.278,0c-0.195,0.031-0.575,0.193-0.719,0.329
			c-0.75,0.71-1.443,2.744-1.848,3.694c-0.213,0.499-0.55,1.552-0.574,2.094c-0.018,0.379,0.268,1.493,0.268,1.493l-0.846,0.779
			c0,0-0.524-1.13-0.613-1.533c-0.068-0.311-0.05-0.959,0-1.272c0.078-0.491,0.613-1.889,0.613-1.889s0.328-1,0.496-1.438
			c0.176-0.46,0.735-1.687,1.012-2.094c0.274-0.403,1.111-0.999,1.574-1.149c0.693-0.227,2.915,0,2.915,0V500.645z"/>
	</g>
</g>
<g>
	<g>
		<g>
			<rect x="589.533" y="716.802" fill="#FFFFFF" width="1.149" height="48.365"/>
			<rect x="594.378" y="753.727" fill="#FFFFFF" width="1.149" height="7.007"/>
			<rect x="592.065" y="753.938" fill="#FFFFFF" width="1.149" height="8.978"/>
			<rect x="592.353" y="721.538" fill="#FFFFFF" width="1.149" height="7.007"/>
			<polygon fill="#FFFFFF" points="596.084,736.592 594.971,736.592 594.971,729.804 596.084,730.493 			"/>
			
				<rect x="607.187" y="746.006" transform="matrix(0.755 0.6557 -0.6557 0.755 640.1788 -214.9453)" fill="#FFFFFF" width="1.15" height="6.612"/>
			<rect x="597.58" y="751.099" fill="#FFFFFF" width="7.473" height="1.15"/>
			<rect x="600.345" y="745.863" fill="#FFFFFF" width="6.021" height="1.149"/>
			<polygon fill="#FFFFFF" points="604.233,743.563 603.369,742.713 609.712,735.826 610.557,736.605 			"/>
			
				<rect x="602.906" y="732.006" transform="matrix(0.7354 0.6776 -0.6776 0.7354 658.6635 -214.1032)" fill="#FFFFFF" width="1.15" height="8.664"/>
			
				<rect x="597.279" y="741.346" transform="matrix(0.6602 0.7511 -0.7511 0.6602 763.3768 -195.5951)" fill="#FFFFFF" width="1.149" height="9.035"/>
			
				<rect x="595.468" y="738.179" transform="matrix(0.6665 0.7455 -0.7455 0.6665 751.3441 -197.1576)" fill="#FFFFFF" width="1.15" height="6.103"/>
			<path fill="#FFFFFF" d="M590.867,715.638c-0.052,0.053-0.606,0.164-0.896,0.426c-0.35,0.315-0.438,0.785-0.438,0.785v0.35
				l1.334-0.041c0,0,1.335-0.27,1.786-0.309c0.821-0.07,2.478-0.09,3.297,0c0.646,0.071,1.701,0.351,2.232,0.575
				c0.17,0.071,0.487,0.262,0.649,0.349c0.183,0.098,0.56,0.268,0.739,0.37c0.203,0.115,0.598,0.368,0.78,0.513
				c0.174,0.138,0.731,0.509,0.896,0.657c0.241,0.217,0.746,0.78,0.746,0.78s0.43,0.76,0.54,1.054
				c0.074,0.197,0.123,0.624,0.164,0.821c0.061,0.292,0.179,1.122,0.179,1.122s2.486-0.115,3.305,0
				c0.259,0.036,0.768,0.179,1.006,0.287c0.249,0.113,0.735,0.377,0.944,0.555c0.183,0.155,0.78,0.671,0.78,0.671l0.766,0.819
				l0.632,1.045c0,0,0.313,0.804,0.437,1.063s0.287,0.754,0.41,1.015c0.193,0.41,0.635,1.251,0.794,1.688
				c0,0,0.415,1.354,0.52,1.813c0.152,0.664-0.057,2.065,0.117,2.725c0.115,0.439,0.776,1.138,0.924,1.567
				c0.119,0.352,0.055,1.481,0.055,1.481l-0.158,1.26c0,0-0.321,0.952-0.472,1.275c-0.24,0.517-1.067,2.092-1.067,2.092
				l-0.712,1.066c0,0,0.294,0.752,0.356,0.793c0.062,0.041,0.273,1.067,0.273,1.067v0.875l-0.137,0.765l-0.192,0.281l-0.137,0.274
				l-0.438,0.821l-0.821,1.177l-0.712,0.985l-1.013,1.423l-1.766,1.6l-1.272,0.781l-0.876,0.302l-0.831,0.137h-5.079v1.224h5.079
				l0.886-0.185l1.273-0.35l1.703-1.19l1.909-1.827l1-1.32l0.786-1.204l0.801-1.109l0.267-0.451l0.288-0.534l0.205-0.431
				l0.185-0.657v-0.369v-1.684l-0.144-0.451l-0.212-0.679l0.479-0.677l0.39-0.801l0.227-0.451l0.342-0.663l0.212-0.753l0.288-0.645
				l0.226-0.896c0,0,0.205-0.763,0.205-1.036c0-0.304-0.205-1.271-0.205-1.271l-0.164-0.511l-0.145-0.385l-0.328-0.493l-0.431-0.492
				c0,0,0.1-1.964,0-2.607c-0.036-0.234-0.288-0.903-0.288-0.903l-0.308-0.883l-0.514-1.313l-0.492-1.171l-0.514-1.211l-0.738-1.327
				c0,0-0.613-0.926-0.862-1.197c-0.18-0.196-0.606-0.521-0.821-0.678c-0.262-0.192-0.819-0.53-1.108-0.678
				c-0.193-0.098-0.601-0.245-0.801-0.328c-0.123-0.051-0.493-0.205-0.493-0.205l-0.902-0.144l-1.881-0.161l-0.07-0.332
				c0,0-0.12-0.514-0.185-0.678c-0.137-0.351-0.522-1.005-0.738-1.313c-0.205-0.292-0.696-0.812-0.944-1.067
				c-0.211-0.217-0.662-0.62-0.903-0.801c-0.173-0.129-0.549-0.343-0.726-0.465c-0.112-0.078-0.21-0.171-0.328-0.239
				c-0.128-0.073-0.657-0.309-0.657-0.309l-0.603-0.273c0,0-0.613-0.26-0.793-0.328c-0.216-0.083-0.979-0.254-0.979-0.254H590.867"
				/>
			<path fill="#FFFFFF" d="M613.407,740.354"/>
			<polygon fill="#FFFFFF" points="597.627,751.099 598.265,752.249 595.289,754.759 594.378,753.727 			"/>
			<polygon fill="#FFFFFF" points="606.028,752.185 604.905,752.249 604.905,751.099 606.175,751.099 			"/>
			<polygon fill="#FFFFFF" points="595.527,731.706 596.103,730.516 593.164,727.414 592.353,728.545 			"/>
			<polygon fill="#FFFFFF" points="597.657,737.938 598.21,736.763 595.764,735.611 594.968,736.598 			"/>
			<polygon fill="#FFFFFF" points="597.934,738.767 597.854,739.914 600.97,739.914 600.538,738.686 			"/>
			<polygon fill="#FFFFFF" points="600.883,742.416 600.65,743.492 604.233,743.563 603.761,742.325 			"/>
			<polygon fill="#FFFFFF" points="605.54,745.863 608.173,743.253 609.049,744.147 606.366,747.013 			"/>
			<polygon fill="#FFFFFF" points="600.97,747.013 600.124,748.746 599.141,748.254 600.055,745.863 600.97,745.863 			"/>
			<path fill="#FFFFFF" d="M595.527,748.677l-1.149,1.603c0,0-0.732,1.279-0.876,1.709c-0.165,0.496-0.287,1.95-0.287,1.95h-1.149
				c0,0-0.037-0.76,0-1.01c0.098-0.663,0.583-1.93,0.862-2.54c0.237-0.52,1.156-1.973,1.156-1.973L595.527,748.677z"/>
			<path fill="#FFFFFF" d="M595.855,724.85h2.845c0,0,1.082,0.257,1.354,0.492c0.238,0.206,0.596,1.108,0.596,1.108l0.319,0.821
				c0,0,0.045,0.408,0,0.534c-0.15,0.414-1.132,1.354-1.132,1.354l0.813,0.862c0,0,1.114-1.041,1.364-1.478
				c0.143-0.249,0.245-0.805,0.205-1.131c-0.043-0.35-0.46-1.213-0.595-1.538c-0.17-0.409-0.651-1.177-0.975-1.479
				c-0.26-0.242-0.892-0.621-1.238-0.697c-0.868-0.192-3.557,0-3.557,0V724.85z"/>
			<path fill="#FFFFFF" d="M604.56,728.216c0,0,1.717-0.092,2.279,0c0.195,0.032,0.575,0.193,0.718,0.329
				c0.751,0.71,1.443,2.744,1.848,3.694c0.213,0.5,0.551,1.552,0.575,2.094c0.017,0.379-0.268,1.493-0.268,1.493l0.845,0.779
				c0,0,0.524-1.13,0.613-1.533c0.068-0.311,0.05-0.958,0-1.272c-0.077-0.49-0.613-1.889-0.613-1.889s-0.328-1-0.495-1.438
				c-0.176-0.46-0.736-1.687-1.013-2.094c-0.273-0.403-1.11-0.998-1.574-1.149c-0.692-0.226-2.915,0-2.915,0V728.216z"/>
		</g>
		<g>
			<rect x="587.021" y="716.851" fill="#FFFFFF" width="1.149" height="48.365"/>
			<rect x="582.175" y="753.775" fill="#FFFFFF" width="1.149" height="7.007"/>
			<rect x="584.488" y="753.986" fill="#FFFFFF" width="1.149" height="8.978"/>
			<rect x="584.2" y="721.586" fill="#FFFFFF" width="1.149" height="7.008"/>
			<polygon fill="#FFFFFF" points="581.618,736.64 582.731,736.64 582.731,729.853 581.618,730.541 			"/>
			
				<rect x="569.366" y="746.053" transform="matrix(-0.755 0.6557 -0.6557 -0.755 1491.6072 941.4642)" fill="#FFFFFF" width="1.15" height="6.613"/>
			<rect x="572.649" y="751.147" fill="#FFFFFF" width="7.473" height="1.149"/>
			<rect x="571.336" y="745.911" fill="#FFFFFF" width="6.021" height="1.15"/>
			<polygon fill="#FFFFFF" points="573.47,743.611 574.333,742.762 567.991,735.875 567.146,736.654 			"/>
			
				<rect x="573.647" y="732.055" transform="matrix(-0.735 0.6781 -0.6781 -0.735 1495.5936 888.2689)" fill="#FFFFFF" width="1.149" height="8.664"/>
			
				<rect x="579.274" y="741.394" transform="matrix(-0.6602 0.7511 -0.7511 -0.6602 1522.9124 802.8281)" fill="#FFFFFF" width="1.149" height="9.035"/>
			
				<rect x="581.084" y="738.228" transform="matrix(-0.6674 0.7447 -0.7447 -0.6674 1521.8872 802.8662)" fill="#FFFFFF" width="1.15" height="6.103"/>
			<path fill="#FFFFFF" d="M586.835,715.687c0.052,0.052,0.607,0.163,0.896,0.425c0.35,0.315,0.438,0.786,0.438,0.786v0.349
				l-1.335-0.041c0,0-1.334-0.269-1.785-0.308c-0.821-0.07-2.478-0.09-3.297,0c-0.646,0.07-1.701,0.351-2.232,0.574
				c-0.17,0.072-0.488,0.262-0.65,0.35c-0.182,0.098-0.56,0.267-0.739,0.369c-0.202,0.116-0.597,0.368-0.779,0.514
				c-0.174,0.138-0.732,0.508-0.897,0.656c-0.24,0.217-0.745,0.78-0.745,0.78s-0.431,0.761-0.541,1.054
				c-0.073,0.197-0.123,0.625-0.164,0.821c-0.06,0.292-0.178,1.122-0.178,1.122s-2.487-0.114-3.306,0
				c-0.259,0.036-0.768,0.18-1.006,0.288c-0.249,0.113-0.735,0.377-0.943,0.554c-0.184,0.156-0.78,0.672-0.78,0.672l-0.767,0.819
				l-0.632,1.044c0,0-0.313,0.804-0.436,1.063c-0.124,0.261-0.287,0.755-0.411,1.016c-0.193,0.409-0.634,1.25-0.793,1.688
				c0,0-0.416,1.353-0.521,1.813c-0.151,0.664,0.058,2.064-0.116,2.724c-0.116,0.44-0.776,1.138-0.924,1.568
				c-0.12,0.351-0.055,1.481-0.055,1.481l0.157,1.259c0,0,0.322,0.952,0.472,1.275c0.241,0.517,1.068,2.093,1.068,2.093l0.711,1.066
				c0,0-0.294,0.751-0.355,0.792s-0.273,1.067-0.273,1.067v0.876l0.137,0.765l0.191,0.281l0.137,0.273l0.438,0.821l0.821,1.177
				l0.711,0.985l1.013,1.424l1.766,1.6l1.272,0.781l0.876,0.302l0.831,0.137h5.079v1.223h-5.079l-0.886-0.185l-1.272-0.349
				l-1.704-1.19l-1.909-1.827l-1-1.32l-0.786-1.205l-0.8-1.108l-0.268-0.451l-0.287-0.534l-0.205-0.431l-0.185-0.657v-0.369v-1.684
				l0.144-0.452l0.211-0.678l-0.479-0.677l-0.39-0.801l-0.226-0.451l-0.343-0.663l-0.212-0.754l-0.287-0.644l-0.226-0.896
				c0,0-0.206-0.763-0.206-1.035c0-0.304,0.206-1.271,0.206-1.271l0.164-0.511l0.144-0.386l0.328-0.492l0.432-0.493
				c0,0-0.101-1.963,0-2.607c0.036-0.233,0.287-0.902,0.287-0.902l0.308-0.883l0.514-1.314l0.492-1.17l0.514-1.211l0.739-1.327
				c0,0,0.612-0.927,0.862-1.198c0.18-0.195,0.606-0.52,0.821-0.678c0.262-0.191,0.818-0.53,1.108-0.677
				c0.192-0.098,0.601-0.246,0.8-0.329c0.124-0.051,0.493-0.205,0.493-0.205l0.903-0.144l1.881-0.16l0.069-0.332
				c0,0,0.121-0.515,0.185-0.678c0.138-0.351,0.523-1.005,0.739-1.313c0.204-0.293,0.696-0.813,0.944-1.068
				c0.21-0.216,0.661-0.619,0.903-0.8c0.173-0.13,0.548-0.343,0.725-0.466c0.112-0.078,0.21-0.171,0.329-0.238
				c0.128-0.073,0.656-0.309,0.656-0.309l0.603-0.274c0,0,0.614-0.259,0.794-0.328c0.215-0.083,0.979-0.253,0.979-0.253H586.835"/>
			<path fill="#FFFFFF" d="M564.295,740.402"/>
			<polygon fill="#FFFFFF" points="580.075,751.147 579.438,752.297 582.413,754.808 583.324,753.775 			"/>
			<polygon fill="#FFFFFF" points="571.675,752.233 572.797,752.297 572.797,751.147 571.527,751.147 			"/>
			<polygon fill="#FFFFFF" points="582.175,731.754 581.601,730.563 584.538,727.463 585.35,728.594 			"/>
			<polygon fill="#FFFFFF" points="580.046,737.987 579.492,736.812 581.939,735.659 582.734,736.646 			"/>
			<polygon fill="#FFFFFF" points="579.77,738.815 579.849,739.963 576.733,739.963 577.165,738.734 			"/>
			<polygon fill="#FFFFFF" points="576.819,742.465 577.053,743.541 573.47,743.611 573.941,742.374 			"/>
			<polygon fill="#FFFFFF" points="572.162,745.911 569.529,743.301 568.653,744.196 571.336,747.062 			"/>
			<polygon fill="#FFFFFF" points="576.733,747.062 577.578,748.795 578.562,748.302 577.647,745.911 576.733,745.911 			"/>
			<path fill="#FFFFFF" d="M582.175,748.725l1.149,1.603c0,0,0.733,1.279,0.876,1.709c0.165,0.497,0.288,1.95,0.288,1.95h1.149
				c0,0,0.037-0.759,0-1.009c-0.099-0.664-0.584-1.931-0.862-2.541c-0.238-0.52-1.156-1.972-1.156-1.972L582.175,748.725z"/>
			<path fill="#FFFFFF" d="M581.847,724.897h-2.844c0,0-1.083,0.257-1.355,0.493c-0.238,0.206-0.595,1.108-0.595,1.108l-0.319,0.821
				c0,0-0.046,0.408,0,0.533c0.15,0.415,1.131,1.355,1.131,1.355l-0.812,0.862c0,0-1.114-1.042-1.364-1.478
				c-0.143-0.249-0.245-0.806-0.205-1.131c0.042-0.351,0.46-1.213,0.595-1.539c0.169-0.408,0.65-1.176,0.975-1.478
				c0.26-0.242,0.892-0.621,1.238-0.698c0.868-0.192,3.556,0,3.556,0V724.897z"/>
			<path fill="#FFFFFF" d="M573.143,728.265c0,0-1.717-0.092-2.278,0c-0.195,0.031-0.575,0.193-0.719,0.329
				c-0.75,0.71-1.443,2.744-1.848,3.694c-0.213,0.499-0.55,1.552-0.574,2.094c-0.018,0.379,0.268,1.493,0.268,1.493l-0.846,0.779
				c0,0-0.524-1.13-0.613-1.533c-0.068-0.311-0.05-0.959,0-1.272c0.078-0.491,0.613-1.889,0.613-1.889s0.328-1,0.496-1.438
				c0.176-0.46,0.735-1.687,1.012-2.094c0.274-0.403,1.111-0.999,1.574-1.149c0.693-0.227,2.915,0,2.915,0V728.265z"/>
		</g>
	</g>
	<path fill="#FFFFFF" d="M637.447,750.839c0,0.746-0.606,1.353-1.354,1.353l0,0c-0.746,0-1.353-0.606-1.353-1.353v-22.377
		c0-0.747,0.606-1.353,1.353-1.353l0,0c0.747,0,1.354,0.605,1.354,1.353V750.839z"/>
	<path fill="#FFFFFF" d="M634.741,751.09c0,0.814,0.495,1.475,1.106,1.475h10.573c0.612,0,1.107-0.66,1.107-1.475l0,0
		c0-0.814-0.495-1.475-1.107-1.475h-10.573C635.236,749.615,634.741,750.275,634.741,751.09L634.741,751.09z"/>
	<g>
		<path fill="#FFFFFF" d="M655.039,752.006c-0.127,0.667,0.464,1.339,1.321,1.503l0,0c0.857,0.163,1.653-0.245,1.781-0.912
			l4.446-23.31c0.127-0.668-0.464-1.341-1.321-1.504l0,0c-0.857-0.164-1.654,0.244-1.781,0.912L655.039,752.006z"/>
		<path fill="#FFFFFF" d="M669.198,752.602c0.122,0.668,0.917,1.081,1.775,0.924l0,0c0.859-0.159,1.453-0.829,1.331-1.497
			l-4.294-23.339c-0.122-0.668-0.918-1.081-1.776-0.923l0,0c-0.857,0.157-1.452,0.828-1.33,1.496L669.198,752.602z"/>
		<path fill="#FFFFFF" d="M668.604,743.222c0,0.814-0.55,1.476-1.229,1.476h-7.332c-0.679,0-1.23-0.661-1.23-1.476l0,0
			c0-0.815,0.552-1.476,1.23-1.476h7.332C668.055,741.746,668.604,742.406,668.604,743.222L668.604,743.222z"/>
		<path fill="#FFFFFF" d="M664.977,729.938c0,0-0.654-0.388-0.896-0.456c-0.119-0.035-0.375-0.08-0.495-0.048
			c-0.317,0.089-1.108,0.712-1.108,0.712l-2.177-0.494l-0.577-1.43l0.531-0.74l0.645-0.583c0,0,0.617-0.26,0.831-0.323
			s0.651-0.166,0.876-0.184c0.569-0.047,2.105-0.015,2.105-0.015l1.075,0.214l0.677,0.431l0.568,0.46l0.706,0.691L664.977,729.938z"
			/>
		<path fill="#FFFFFF" d="M667.031,732.018"/>
	</g>
	<path fill="#FFFFFF" d="M727.814,751.458c0,0.849-0.742,1.536-1.659,1.536l0,0c-0.917,0-1.659-0.688-1.659-1.536v-23.125
		c0-0.848,0.742-1.535,1.659-1.535l0,0c0.917,0,1.659,0.688,1.659,1.535V751.458z"/>
	<path fill="#FFFFFF" d="M703.887,751.07c0,0.934,0.783,1.691,1.747,1.691h8.957c0.964,0,1.746-0.758,1.746-1.691l0,0
		c0-0.932-0.782-1.689-1.746-1.689h-8.957C704.67,749.381,703.887,750.139,703.887,751.07L703.887,751.07z"/>
	<path fill="#FFFFFF" d="M703.225,728.256c0,0.934,0.781,1.69,1.746,1.69h8.957c0.965,0,1.745-0.757,1.745-1.69l0,0
		c0-0.933-0.78-1.689-1.745-1.689h-8.957C704.006,726.566,703.225,727.323,703.225,728.256L703.225,728.256z"/>
	<path fill="#FFFFFF" d="M702.243,747.392c-0.377,0.557-0.044,1.443,0.747,1.979l0,0c0.79,0.537,1.738,0.521,2.117-0.035
		l11.837-17.428c0.377-0.556,0.041-1.443-0.749-1.979l0,0c-0.79-0.538-1.737-0.521-2.114,0.034L702.243,747.392z"/>
	<path fill="#FFFFFF" d="M717.182,729.771c0.29,1.556-0.648,3.5-1.45,3.5c-0.801,0-1.449-1.403-1.449-3.135
		c0-1.732-0.433-3.514,0.368-3.514S716.864,728.067,717.182,729.771z"/>
	<path fill="#FFFFFF" d="M701.934,749.612c-0.338-1.339,0.649-3.501,1.451-3.501c0.801,0,1.685,1.594,1.685,3.324
		c0,1.732,1.376,3.326,0.576,3.326C704.844,752.762,702.362,751.308,701.934,749.612z"/>
	<path fill="#FFFFFF" stroke="#FFFFFF" stroke-width="3" stroke-miterlimit="10" d="M693.727,745.511
		c0,3.742-2.941,6.776-6.571,6.776l0,0c-3.629,0-6.57-3.034-6.57-6.776v-11.722c0-3.742,2.941-6.775,6.57-6.775l0,0
		c3.63,0,6.571,3.033,6.571,6.775V745.511z"/>
	<rect x="622.751" y="715.565" fill="#FFFFFF" width="1.999" height="49.578"/>
</g>
</svg>
