<?xml version="1.0" encoding="utf-8"?>
<!-- Generator: Adobe Illustrator 16.0.0, SVG Export Plug-In . SVG Version: 6.00 Build 0)  -->
<!DOCTYPE svg PUBLIC "-//W3C//DTD SVG 1.1//EN" "http://www.w3.org/Graphics/SVG/1.1/DTD/svg11.dtd">
<svg version="1.1" id="Camada_1" xmlns="http://www.w3.org/2000/svg" xmlns:xlink="http://www.w3.org/1999/xlink" x="0px" y="0px"
	 width="1000px" height="1000px" viewBox="0 0 1000 1000" enable-background="new 0 0 1000 1000" xml:space="preserve">
<g>
	<g>
		<g>
			<rect x="186.175" y="311.565" fill="#FFFFFF" stroke="#FFFFFF" stroke-miterlimit="10" width="6.303" height="265.252"/>
			<rect x="212.745" y="514.073" fill="#FFFFFF" stroke="#FFFFFF" stroke-miterlimit="10" width="6.304" height="38.428"/>
			<rect x="200.063" y="515.236" fill="#FFFFFF" stroke="#FFFFFF" stroke-miterlimit="10" width="6.304" height="49.235"/>
			<rect x="201.637" y="337.541" fill="#FFFFFF" stroke="#FFFFFF" stroke-miterlimit="10" width="6.304" height="38.428"/>
			<polygon fill="#FFFFFF" stroke="#FFFFFF" stroke-miterlimit="10" points="222.102,420.1 215.996,420.1 215.996,382.872 
				222.102,386.653 			"/>
			
				<rect x="282.993" y="471.73" transform="matrix(0.7551 0.6556 -0.6556 0.7551 391.1983 -67.6403)" fill="#FFFFFF" stroke="#FFFFFF" stroke-miterlimit="10" width="6.306" height="36.26"/>
			<rect x="230.307" y="499.661" fill="#FFFFFF" stroke="#FFFFFF" stroke-miterlimit="10" width="40.982" height="6.31"/>
			<rect x="245.469" y="470.948" fill="#FFFFFF" stroke="#FFFFFF" stroke-miterlimit="10" width="33.024" height="6.304"/>
			<polygon fill="#FFFFFF" stroke="#FFFFFF" stroke-miterlimit="10" points="266.796,458.335 262.056,453.671 296.842,415.902 
				301.474,420.176 			"/>
			
				<rect x="259.518" y="394.949" transform="matrix(0.7354 0.6776 -0.6776 0.7354 353.2099 -67.2095)" fill="#FFFFFF" stroke="#FFFFFF" stroke-miterlimit="10" width="6.307" height="47.517"/>
			<polygon fill="#FFFFFF" stroke="#FFFFFF" stroke-miterlimit="10" points="215.294,489.684 211.133,484.949 248.324,452.208 
				252.49,456.943 			"/>
			<polygon fill="#FFFFFF" stroke="#FFFFFF" stroke-miterlimit="10" points="211.513,459.053 207.309,454.351 232.246,432.028 
				236.45,436.73 			"/>
			<path fill="#FFFFFF" stroke="#FFFFFF" stroke-miterlimit="10" d="M193.491,305.181c-0.284,0.29-3.326,0.9-4.917,2.335
				c-1.917,1.731-2.399,4.307-2.399,4.307v1.917l7.316-0.225c0,0,7.321-1.479,9.796-1.692c4.503-0.385,13.587-0.493,18.081,0
				c3.545,0.391,9.33,1.923,12.243,3.154c0.932,0.391,2.672,1.435,3.562,1.912c1.001,0.536,3.069,1.468,4.054,2.031
				c1.114,0.632,3.277,2.019,4.279,2.811c0.954,0.756,4.012,2.791,4.917,3.605c1.323,1.189,4.092,4.279,4.092,4.279
				s2.357,4.166,2.962,5.778c0.407,1.083,0.675,3.424,0.899,4.505c0.332,1.602,0.981,6.155,0.981,6.155s13.636-0.633,18.124,0
				c1.419,0.197,4.209,0.979,5.516,1.574c1.365,0.621,4.033,2.067,5.179,3.042c1.001,0.852,4.279,3.679,4.279,3.679l4.199,4.493
				l3.465,5.731c0,0,1.719,4.408,2.394,5.832c0.674,1.424,1.574,4.135,2.25,5.565c1.06,2.249,3.481,6.861,4.354,9.26
				c0,0,2.276,7.423,2.849,9.941c0.835,3.642-0.311,11.328,0.643,14.943c0.632,2.41,4.257,6.239,5.067,8.595
				c0.653,1.929,0.299,8.125,0.299,8.125l-0.867,6.909c0,0-1.763,5.221-2.587,6.995c-1.318,2.833-5.854,11.472-5.854,11.472
				l-3.904,5.849c0,0,1.612,4.124,1.955,4.349c0.337,0.224,1.5,5.854,1.5,5.854v4.798l-0.75,4.194l-1.054,1.542l-0.75,1.506
				l-2.399,4.503l-4.505,6.454l-3.904,5.404l-5.554,7.803l-9.683,8.773l-6.979,4.284l-4.804,1.655l-4.558,0.75h-27.856v6.71h27.856
				l4.858-1.012l6.984-1.917l9.341-6.53l10.47-10.02l5.484-7.241l4.312-6.604l4.392-6.085l1.462-2.474l1.581-2.929l1.125-2.362
				l1.012-3.605v-2.025v-9.232l-0.787-2.475l-1.163-3.723l2.624-3.711l2.138-4.393l1.242-2.474l1.875-3.637l1.162-4.128l1.58-3.535
				l1.237-4.911c0,0,1.125-4.184,1.125-5.683c0-1.666-1.125-6.968-1.125-6.968l-0.9-2.801l-0.792-2.11l-1.8-2.704l-2.362-2.7
				c0,0,0.546-10.771,0-14.3c-0.198-1.285-1.58-4.954-1.58-4.954l-1.687-4.842l-2.817-7.205l-2.7-6.42l-2.817-6.642l-4.049-7.279
				c0,0-3.364-5.077-4.729-6.566c-0.985-1.075-3.326-2.854-4.504-3.716c-1.436-1.056-4.494-2.909-6.079-3.717
				c-1.06-0.535-3.293-1.345-4.392-1.799c-0.675-0.279-2.705-1.125-2.705-1.125l-4.949-0.786l-10.315-0.884l-0.386-1.822
				c0,0-0.658-2.817-1.013-3.717c-0.749-1.923-2.865-5.512-4.049-7.204c-1.125-1.602-3.819-4.451-5.179-5.854
				c-1.156-1.188-3.631-3.401-4.954-4.393c-0.948-0.706-3.01-1.879-3.979-2.548c-0.616-0.428-1.151-0.937-1.799-1.312
				c-0.702-0.401-3.605-1.692-3.605-1.692l-3.304-1.5c0,0-3.363-1.425-4.349-1.8c-1.184-0.455-5.371-1.393-5.371-1.393H193.491"/>
			<path fill="#FFFFFF" stroke="#FFFFFF" stroke-miterlimit="10" d="M317.108,440.737"/>
			<polygon fill="#FFFFFF" stroke="#FFFFFF" stroke-miterlimit="10" points="230.564,499.661 234.062,505.971 217.742,519.734 
				212.745,514.073 			"/>
			<polygon fill="#FFFFFF" stroke="#FFFFFF" stroke-miterlimit="10" points="276.64,505.616 270.48,505.971 270.48,499.661 
				277.443,499.661 			"/>
			<polygon fill="#FFFFFF" stroke="#FFFFFF" stroke-miterlimit="10" points="219.049,393.306 222.203,386.776 206.087,369.767 
				201.637,375.969 			"/>
			<polygon fill="#FFFFFF" stroke="#FFFFFF" stroke-miterlimit="10" points="230.729,427.486 233.761,421.038 220.345,414.723 
				215.98,420.132 			"/>
			<polygon fill="#FFFFFF" stroke="#FFFFFF" stroke-miterlimit="10" points="232.246,432.028 231.812,438.321 248.896,438.321 
				246.53,431.583 			"/>
			<polygon fill="#FFFFFF" stroke="#FFFFFF" stroke-miterlimit="10" points="248.42,452.042 247.145,457.944 266.796,458.335 
				264.204,451.544 			"/>
			<polygon fill="#FFFFFF" stroke="#FFFFFF" stroke-miterlimit="10" points="273.961,470.948 288.401,456.633 293.205,461.539 
				278.493,477.252 			"/>
			<polygon fill="#FFFFFF" stroke="#FFFFFF" stroke-miterlimit="10" points="248.896,477.252 244.258,486.759 238.865,484.059 
				243.878,470.948 248.896,470.948 			"/>
			<path fill="#FFFFFF" stroke="#FFFFFF" stroke-miterlimit="10" d="M219.049,486.379l-6.304,8.788c0,0-4.017,7.017-4.804,9.373
				c-0.905,2.722-1.575,10.696-1.575,10.696h-6.304c0,0-0.203-4.168,0-5.539c0.536-3.637,3.197-10.583,4.729-13.93
				c1.301-2.85,6.341-10.819,6.341-10.819L219.049,486.379z"/>
			<path fill="#FFFFFF" stroke="#FFFFFF" stroke-miterlimit="10" d="M220.848,355.702h15.602c0,0,5.934,1.409,7.429,2.7
				c1.307,1.13,3.267,6.079,3.267,6.079l1.751,4.504c0,0,0.246,2.239,0,2.929c-0.825,2.272-6.208,7.429-6.208,7.429l4.456,4.729
				c0,0,6.111-5.708,7.482-8.103c0.782-1.366,1.345-4.413,1.125-6.202c-0.236-1.917-2.522-6.651-3.262-8.435
				c-0.932-2.245-3.572-6.454-5.345-8.109c-1.425-1.327-4.89-3.406-6.792-3.823c-4.761-1.055-19.505,0-19.505,0V355.702z"/>
			<path fill="#FFFFFF" stroke="#FFFFFF" stroke-miterlimit="10" d="M268.585,374.164c0,0,9.416-0.503,12.5,0
				c1.071,0.176,3.155,1.06,3.937,1.805c4.118,3.893,7.915,15.05,10.133,20.261c1.167,2.743,3.021,8.511,3.154,11.483
				c0.092,2.078-1.467,8.189-1.467,8.189l4.632,4.274c0,0,2.877-6.197,3.364-8.409c0.375-1.703,0.273-5.253,0-6.979
				c-0.423-2.687-3.364-10.358-3.364-10.358s-1.799-5.484-2.715-7.883c-0.964-2.523-4.038-9.25-5.554-11.483
				c-1.5-2.212-6.089-5.474-8.633-6.304c-3.797-1.237-15.987,0-15.987,0V374.164z"/>
		</g>
		<g>
			<rect x="172.395" y="311.833" fill="#FFFFFF" stroke="#FFFFFF" stroke-miterlimit="10" width="6.303" height="265.251"/>
			<rect x="145.818" y="514.342" fill="#FFFFFF" stroke="#FFFFFF" stroke-miterlimit="10" width="6.304" height="38.428"/>
			<rect x="158.506" y="515.497" fill="#FFFFFF" stroke="#FFFFFF" stroke-miterlimit="10" width="6.304" height="49.236"/>
			<rect x="156.926" y="337.804" fill="#FFFFFF" stroke="#FFFFFF" stroke-miterlimit="10" width="6.304" height="38.433"/>
			<polygon fill="#FFFFFF" stroke="#FFFFFF" stroke-miterlimit="10" points="142.766,420.363 148.872,420.363 148.872,383.14 
				142.766,386.916 			"/>
			
				<rect x="75.571" y="471.991" transform="matrix(-0.7549 0.6558 -0.6558 -0.7549 459.5853 808.5029)" fill="#FFFFFF" stroke="#FFFFFF" stroke-miterlimit="10" width="6.306" height="36.268"/>
			<rect x="93.578" y="499.928" fill="#FFFFFF" stroke="#FFFFFF" stroke-miterlimit="10" width="40.983" height="6.304"/>
			<rect x="86.375" y="471.211" fill="#FFFFFF" stroke="#FFFFFF" stroke-miterlimit="10" width="33.024" height="6.309"/>
			<polygon fill="#FFFFFF" stroke="#FFFFFF" stroke-miterlimit="10" points="98.077,458.598 102.812,453.938 68.031,416.169 
				63.393,420.443 			"/>
			<polygon fill="#FFFFFF" stroke="#FFFFFF" stroke-miterlimit="10" points="115.976,438.588 120.609,434.314 88.421,399.363 
				83.788,403.631 			"/>
			<polygon fill="#FFFFFF" stroke="#FFFFFF" stroke-miterlimit="10" points="149.579,489.951 153.74,485.216 116.544,452.476 
				112.382,457.211 			"/>
			<polygon fill="#FFFFFF" stroke="#FFFFFF" stroke-miterlimit="10" points="153.355,459.316 157.564,454.618 132.627,432.295 
				128.423,436.992 			"/>
			<path fill="#FFFFFF" stroke="#FFFFFF" stroke-miterlimit="10" d="M171.376,305.448c0.284,0.285,3.332,0.896,4.917,2.331
				c1.917,1.73,2.404,4.311,2.404,4.311v1.911l-7.321-0.223c0,0-7.315-1.475-9.79-1.688c-4.504-0.385-13.588-0.493-18.082,0
				c-3.545,0.385-9.33,1.923-12.244,3.15c-0.931,0.396-2.677,1.435-3.567,1.917c-0.996,0.535-3.068,1.461-4.054,2.023
				c-1.108,0.638-3.273,2.02-4.274,2.817c-0.953,0.756-4.017,2.785-4.922,3.6c-1.317,1.188-4.086,4.279-4.086,4.279
				s-2.362,4.172-2.967,5.779c-0.402,1.081-0.675,3.427-0.9,4.504c-0.326,1.6-0.974,6.153-0.974,6.153s-13.641-0.626-18.129,0
				c-1.419,0.199-4.21,0.985-5.517,1.58c-1.366,0.622-4.032,2.066-5.174,3.036c-1.006,0.858-4.279,3.685-4.279,3.685l-4.205,4.494
				l-3.465,5.725c0,0-1.714,4.408-2.389,5.833c-0.68,1.431-1.575,4.141-2.254,5.571c-1.061,2.244-3.476,6.854-4.349,9.259
				c0,0-2.282,7.419-2.855,9.941c-0.83,3.641,0.316,11.322-0.637,14.937c-0.638,2.416-4.258,6.24-5.066,8.603
				c-0.659,1.921-0.3,8.124-0.3,8.124l0.862,6.903c0,0,1.768,5.223,2.587,6.994c1.323,2.835,5.859,11.478,5.859,11.478l3.899,5.849
				c0,0-1.613,4.118-1.949,4.344c-0.337,0.225-1.5,5.854-1.5,5.854v4.804l0.749,4.193l1.05,1.542l0.749,1.5l2.405,4.505l4.504,6.454
				l3.898,5.403l5.554,7.809l9.684,8.773l6.979,4.284l4.804,1.655l4.558,0.75h27.856v6.705H101.59l-4.856-1.013l-6.979-1.911
				l-9.345-6.528l-10.471-10.021l-5.484-7.241l-4.311-6.608l-4.386-6.079l-1.468-2.476l-1.575-2.929l-1.125-2.362l-1.012-3.605
				v-2.023v-9.234l0.787-2.479l1.158-3.717l-2.625-3.711l-2.137-4.392l-1.237-2.475l-1.88-3.635l-1.162-4.136l-1.575-3.529
				l-1.237-4.916c0,0-1.13-4.184-1.13-5.678c0-1.666,1.13-6.969,1.13-6.969l0.9-2.8l0.787-2.116l1.799-2.699l2.368-2.706
				c0,0-0.552-10.765,0-14.299c0.198-1.281,1.575-4.949,1.575-4.949l1.687-4.842l2.817-7.208l2.699-6.417l2.818-6.641l4.054-7.278
				c0,0,3.358-5.083,4.73-6.572c0.985-1.071,3.325-2.851,4.503-3.716c1.436-1.051,4.489-2.909,6.079-3.713
				c1.055-0.535,3.293-1.349,4.386-1.805c0.68-0.278,2.705-1.124,2.705-1.124l4.954-0.788l10.316-0.878l0.379-1.821
				c0,0,0.665-2.823,1.013-3.717c0.755-1.923,2.871-5.51,4.054-7.204c1.12-1.606,3.819-4.456,5.179-5.86
				c1.152-1.183,3.626-3.396,4.955-4.385c0.947-0.712,3.004-1.881,3.974-2.555c0.615-0.429,1.151-0.938,1.805-1.307
				c0.701-0.401,3.599-1.691,3.599-1.691l3.305-1.506c0,0,3.369-1.419,4.354-1.8c1.178-0.455,5.367-1.387,5.367-1.387H171.376"/>
			<path fill="#FFFFFF" stroke="#FFFFFF" stroke-miterlimit="10" d="M47.759,440.998"/>
			<polygon fill="#FFFFFF" stroke="#FFFFFF" stroke-miterlimit="10" points="134.304,499.928 130.812,506.232 147.125,520.002 
				152.123,514.342 			"/>
			<polygon fill="#FFFFFF" stroke="#FFFFFF" stroke-miterlimit="10" points="88.233,505.885 94.387,506.232 94.387,499.928 
				87.424,499.928 			"/>
			<polygon fill="#FFFFFF" stroke="#FFFFFF" stroke-miterlimit="10" points="145.818,393.568 142.669,387.04 158.78,370.035 
				163.23,376.237 			"/>
			<polygon fill="#FFFFFF" stroke="#FFFFFF" stroke-miterlimit="10" points="134.143,427.753 131.107,421.305 144.527,414.986 
				148.888,420.401 			"/>
			<polygon fill="#FFFFFF" stroke="#FFFFFF" stroke-miterlimit="10" points="132.627,432.295 133.061,438.588 115.976,438.588 
				118.344,431.851 			"/>
			<polygon fill="#FFFFFF" stroke="#FFFFFF" stroke-miterlimit="10" points="116.447,452.31 117.728,458.211 98.077,458.598 
				100.665,451.813 			"/>
			<polygon fill="#FFFFFF" stroke="#FFFFFF" stroke-miterlimit="10" points="90.906,471.211 76.467,456.895 71.662,461.807 
				86.375,477.52 			"/>
			<polygon fill="#FFFFFF" stroke="#FFFFFF" stroke-miterlimit="10" points="115.976,477.52 120.609,487.026 126.003,484.322 
				120.989,471.211 115.976,471.211 			"/>
			<path fill="#FFFFFF" stroke="#FFFFFF" stroke-miterlimit="10" d="M145.818,486.641l6.304,8.789c0,0,4.022,7.016,4.804,9.373
				c0.905,2.727,1.58,10.695,1.58,10.695h6.304c0,0,0.203-4.159,0-5.532c-0.541-3.641-3.203-10.587-4.729-13.935
				c-1.307-2.85-6.341-10.813-6.341-10.813L145.818,486.641z"/>
			<path fill="#FFFFFF" stroke="#FFFFFF" stroke-miterlimit="10" d="M144.019,355.965h-15.595c0,0-5.94,1.409-7.434,2.705
				c-1.307,1.129-3.261,6.079-3.261,6.079l-1.752,4.503c0,0-0.251,2.238,0,2.924c0.825,2.276,6.202,7.434,6.202,7.434l-4.45,4.73
				c0,0-6.111-5.715-7.482-8.104c-0.782-1.367-1.345-4.419-1.125-6.202c0.23-1.923,2.523-6.652,3.262-8.441
				c0.927-2.239,3.567-6.448,5.346-8.102c1.424-1.329,4.89-3.408,6.791-3.83c4.761-1.056,19.5,0,19.5,0V355.965z"/>
			<path fill="#FFFFFF" stroke="#FFFFFF" stroke-miterlimit="10" d="M96.283,374.431c0,0-9.416-0.502-12.495,0
				c-1.071,0.171-3.155,1.061-3.942,1.806c-4.114,3.894-7.917,15.048-10.133,20.261c-1.168,2.736-3.016,8.509-3.149,11.482
				c-0.097,2.079,1.467,8.189,1.467,8.189l-4.639,4.273c0,0-2.876-6.196-3.363-8.409c-0.375-1.702-0.273-5.259,0-6.979
				c0.429-2.694,3.363-10.357,3.363-10.357s1.8-5.486,2.721-7.884c0.964-2.523,4.032-9.249,5.548-11.483
				c1.505-2.212,6.095-5.479,8.634-6.304c3.802-1.241,15.987,0,15.987,0V374.431z"/>
		</g>
	</g>
	<path fill="#FFFFFF" stroke="#FFFFFF" stroke-miterlimit="10" d="M448.953,498.236c0,4.092-3.326,7.417-7.424,7.417l0,0
		c-4.092,0-7.418-3.325-7.418-7.417V375.513c0-4.096,3.326-7.417,7.418-7.417l0,0c4.098,0,7.424,3.321,7.424,7.417V498.236z"/>
	<path fill="#FFFFFF" stroke="#FFFFFF" stroke-miterlimit="10" d="M434.11,499.612c0,4.467,2.715,8.088,6.068,8.088h57.987
		c3.358,0,6.073-3.621,6.073-8.088l0,0c0-4.466-2.715-8.087-6.073-8.087h-57.987C436.826,491.525,434.11,495.146,434.11,499.612
		L434.11,499.612z"/>
	<g>
		<path fill="#FFFFFF" stroke="#FFFFFF" stroke-miterlimit="10" d="M545.432,504.637c-0.695,3.658,2.543,7.343,7.247,8.243l0,0
			c4.701,0.894,9.067-1.345,9.768-5.004l24.386-127.836c0.696-3.664-2.544-7.354-7.248-8.248l0,0c-4.7-0.9-9.072,1.338-9.768,5.002
			L545.432,504.637z"/>
		<path fill="#FFFFFF" stroke="#FFFFFF" stroke-miterlimit="10" d="M623.086,507.904c0.668,3.662,5.027,5.929,9.736,5.065l0,0
			c4.712-0.872,7.97-4.547,7.3-8.21l-23.55-127.998c-0.669-3.664-5.033-5.929-9.741-5.062l0,0c-4.702,0.862-7.965,4.543-7.295,8.206
			L623.086,507.904z"/>
		<path fill="#FFFFFF" stroke="#FFFFFF" stroke-miterlimit="10" d="M619.829,456.461c0,4.467-3.016,8.092-6.742,8.092h-40.213
			c-3.722,0-6.747-3.625-6.747-8.092l0,0c0-4.472,3.025-8.093,6.747-8.093h40.213C616.813,448.368,619.829,451.989,619.829,456.461
			L619.829,456.461z"/>
		<path fill="#FFFFFF" stroke="#FFFFFF" stroke-miterlimit="10" d="M599.932,383.611c0,0-3.588-2.125-4.916-2.5
			c-0.654-0.193-2.057-0.439-2.716-0.263c-1.74,0.488-6.078,3.904-6.078,3.904l-11.938-2.709l-3.165-7.841l2.914-4.059l3.535-3.198
			c0,0,3.383-1.425,4.557-1.772c1.173-0.349,3.571-0.912,4.804-1.007c3.123-0.257,11.547-0.08,11.547-0.08l5.897,1.173l3.712,2.36
			l3.117,2.524l3.871,3.791L599.932,383.611z"/>
		<path fill="#FFFFFF" stroke="#FFFFFF" stroke-miterlimit="10" d="M611.201,395.014"/>
	</g>
	<path fill="#FFFFFF" stroke="#FFFFFF" stroke-miterlimit="10" d="M944.557,501.632c0,4.654-4.07,8.425-9.1,8.425l0,0
		c-5.029,0-9.099-3.771-9.099-8.425V374.807c0-4.649,4.069-8.419,9.099-8.419l0,0c5.029,0,9.1,3.771,9.1,8.419V501.632z"/>
	<path fill="#FFFFFF" stroke="#FFFFFF" stroke-miterlimit="10" d="M813.329,499.505c0,5.121,4.295,9.277,9.581,9.277h49.124
		c5.285,0,9.576-4.156,9.576-9.277l0,0c0-5.109-4.291-9.265-9.576-9.265H822.91C817.624,490.24,813.329,494.396,813.329,499.505
		L813.329,499.505z"/>
	<path fill="#FFFFFF" stroke="#FFFFFF" stroke-miterlimit="10" d="M809.697,374.383c0,5.12,4.285,9.271,9.576,9.271h49.124
		c5.291,0,9.569-4.151,9.569-9.271l0,0c0-5.115-4.278-9.265-9.569-9.265h-49.124C813.982,365.118,809.697,369.268,809.697,374.383
		L809.697,374.383z"/>
	<path fill="#FFFFFF" stroke="#FFFFFF" stroke-miterlimit="10" d="M804.314,479.331c-2.067,3.053-0.241,7.915,4.098,10.856l0,0
		c4.334,2.946,9.533,2.86,11.611-0.192l64.918-95.581c2.068-3.046,0.225-7.916-4.108-10.855l0,0
		c-4.331-2.952-9.527-2.86-11.596,0.188L804.314,479.331z"/>
	<path fill="#FFFFFF" stroke="#FFFFFF" stroke-miterlimit="10" d="M886.243,382.691c1.59,8.531-3.558,19.194-7.954,19.194
		c-4.392,0-7.948-7.697-7.948-17.192c0-9.502-2.373-19.27,2.02-19.27C876.752,365.423,884.502,373.35,886.243,382.691z"/>
	<path fill="#FFFFFF" stroke="#FFFFFF" stroke-miterlimit="10" d="M802.617,491.509c-1.854-7.342,3.562-19.201,7.959-19.201
		c4.392,0,9.237,8.74,9.237,18.231c0,9.502,7.548,18.243,3.16,18.243C818.577,508.782,804.969,500.808,802.617,491.509z"/>
	<path fill="none" stroke="#FFFFFF" stroke-width="35" stroke-miterlimit="10" d="M757.606,469.015
		c0,20.523-16.131,37.164-36.039,37.164l0,0c-19.902,0-36.034-16.641-36.034-37.164V404.73c0-20.525,16.132-37.16,36.034-37.16l0,0
		c19.908,0,36.039,16.635,36.039,37.16V469.015z"/>
	<rect x="368.352" y="304.784" fill="#FFFFFF" stroke="#FFFFFF" stroke-miterlimit="10" width="10.964" height="271.903"/>
</g>
</svg>
