<?xml version="1.0" encoding="utf-8"?>
<!-- Generator: Adobe Illustrator 16.0.0, SVG Export Plug-In . SVG Version: 6.00 Build 0)  -->
<!DOCTYPE svg PUBLIC "-//W3C//DTD SVG 1.1//EN" "http://www.w3.org/Graphics/SVG/1.1/DTD/svg11.dtd">
<svg version="1.1" id="Camada_1" xmlns="http://www.w3.org/2000/svg" xmlns:xlink="http://www.w3.org/1999/xlink" x="0px" y="0px"
	 width="29.7px" height="42px" viewBox="0 0 29.7 42" enable-background="new 0 0 29.7 42" xml:space="preserve">
<g>
	<g>
		<rect x="15.418" y="9.384" fill="#FFFFFF" width="0.635" height="26.707"/>
		<rect x="18.093" y="29.774" fill="#FFFFFF" width="0.635" height="3.869"/>
		<rect x="16.816" y="29.891" fill="#FFFFFF" width="0.635" height="4.957"/>
		<rect x="16.975" y="12" fill="#FFFFFF" width="0.635" height="3.869"/>
		<polygon fill="#FFFFFF" points="19.035,20.312 18.421,20.312 18.421,16.563 19.035,16.945 		"/>
		
			<rect x="25.166" y="25.511" transform="matrix(0.7546 0.6562 -0.6562 0.7546 24.1929 -10.0135)" fill="#FFFFFF" width="0.635" height="3.65"/>
		<rect x="19.861" y="28.323" fill="#FFFFFF" width="4.126" height="0.635"/>
		<rect x="21.388" y="25.432" fill="#FFFFFF" width="3.325" height="0.636"/>
		<polygon fill="#FFFFFF" points="23.536,24.163 23.059,23.692 26.561,19.889 27.026,20.32 		"/>
		
			<rect x="22.803" y="17.78" transform="matrix(0.7365 0.6765 -0.6765 0.7365 19.7393 -10.3243)" fill="#FFFFFF" width="0.635" height="4.785"/>
		
			<rect x="19.695" y="22.937" transform="matrix(0.6602 0.751 -0.751 0.6602 25.8998 -6.39)" fill="#FFFFFF" width="0.635" height="4.99"/>
		
			<rect x="18.696" y="21.188" transform="matrix(0.6667 0.7453 -0.7453 0.6667 23.3828 -6.5474)" fill="#FFFFFF" width="0.634" height="3.37"/>
		<path fill="#FFFFFF" d="M16.154,8.742c-0.028,0.029-0.335,0.09-0.494,0.235c-0.193,0.174-0.242,0.434-0.242,0.434v0.192
			l0.736-0.022c0,0,0.737-0.149,0.986-0.17c0.454-0.04,1.368-0.05,1.82,0c0.357,0.039,0.939,0.193,1.233,0.317
			c0.094,0.039,0.269,0.145,0.358,0.192c0.101,0.054,0.31,0.148,0.408,0.205c0.112,0.063,0.33,0.203,0.431,0.283
			c0.097,0.076,0.403,0.281,0.496,0.363c0.133,0.119,0.411,0.431,0.411,0.431s0.237,0.419,0.298,0.582
			c0.041,0.109,0.067,0.345,0.091,0.454c0.033,0.161,0.1,0.62,0.1,0.62s1.372-0.064,1.824,0c0.143,0.02,0.424,0.098,0.556,0.158
			c0.138,0.063,0.405,0.208,0.521,0.306c0.101,0.086,0.431,0.371,0.431,0.371l0.423,0.453l0.349,0.577c0,0,0.173,0.444,0.241,0.587
			s0.158,0.417,0.227,0.56c0.106,0.227,0.35,0.691,0.438,0.933c0,0,0.229,0.748,0.287,1.001c0.084,0.367-0.032,1.14,0.064,1.504
			c0.063,0.243,0.429,0.628,0.51,0.866c0.066,0.194,0.03,0.818,0.03,0.818l-0.087,0.695c0,0-0.178,0.526-0.261,0.704
			c-0.133,0.286-0.59,1.155-0.59,1.155l-0.393,0.589c0,0,0.162,0.415,0.197,0.438c0.033,0.023,0.149,0.59,0.149,0.59v0.483
			l-0.075,0.423l-0.105,0.154l-0.076,0.151l-0.241,0.454l-0.454,0.649l-0.393,0.544l-0.56,0.786l-0.975,0.884l-0.703,0.431
			l-0.483,0.167l-0.458,0.074h-2.806v0.677h2.806l0.488-0.103l0.703-0.193l0.94-0.656l1.055-1.009l0.552-0.729l0.434-0.665
			l0.443-0.612l0.146-0.25l0.159-0.294l0.113-0.238l0.103-0.362v-0.204v-0.93l-0.08-0.249l-0.116-0.375l0.265-0.374l0.215-0.441
			l0.125-0.25l0.188-0.366l0.116-0.415l0.159-0.356l0.125-0.494c0,0,0.113-0.421,0.113-0.572c0-0.167-0.113-0.702-0.113-0.702
			l-0.091-0.282l-0.079-0.212l-0.182-0.272l-0.237-0.272c0,0,0.055-1.084,0-1.439c-0.021-0.129-0.16-0.499-0.16-0.499l-0.169-0.487
			l-0.283-0.726l-0.272-0.646l-0.284-0.668L27.15,13.96c0,0-0.339-0.511-0.477-0.661c-0.1-0.108-0.334-0.288-0.453-0.374
			c-0.145-0.106-0.452-0.293-0.612-0.375c-0.106-0.054-0.331-0.135-0.441-0.181c-0.068-0.028-0.272-0.113-0.272-0.113l-0.499-0.079
			l-1.038-0.089l-0.039-0.184c0,0-0.066-0.284-0.102-0.375c-0.076-0.193-0.289-0.555-0.408-0.725
			c-0.113-0.161-0.385-0.448-0.521-0.589c-0.116-0.12-0.365-0.342-0.498-0.442c-0.096-0.071-0.304-0.189-0.401-0.256
			c-0.062-0.043-0.115-0.094-0.182-0.132c-0.069-0.041-0.362-0.17-0.362-0.17l-0.332-0.151c0,0-0.34-0.143-0.438-0.181
			c-0.119-0.046-0.541-0.14-0.541-0.14H16.154"/>
		<path fill="#FFFFFF" d="M28.602,22.39"/>
		<polygon fill="#FFFFFF" points="19.887,28.323 20.239,28.958 18.597,30.345 18.093,29.774 		"/>
		<polygon fill="#FFFFFF" points="24.526,28.923 23.906,28.958 23.906,28.323 24.607,28.323 		"/>
		<polygon fill="#FFFFFF" points="18.728,17.614 19.045,16.957 17.423,15.244 16.975,15.869 		"/>
		<polygon fill="#FFFFFF" points="19.904,21.056 20.209,20.406 18.858,19.771 18.419,20.315 		"/>
		<polygon fill="#FFFFFF" points="20.057,21.513 20.013,22.146 21.733,22.146 21.494,21.469 		"/>
		<polygon fill="#FFFFFF" points="21.685,23.528 21.557,24.122 23.536,24.163 23.274,23.479 		"/>
		<polygon fill="#FFFFFF" points="24.257,25.432 25.711,23.99 26.194,24.484 24.713,26.067 		"/>
		<polygon fill="#FFFFFF" points="21.733,26.067 21.266,27.023 20.723,26.752 21.228,25.432 21.733,25.432 		"/>
		<path fill="#FFFFFF" d="M18.728,26.985l-0.635,0.885c0,0-0.403,0.707-0.483,0.943c-0.091,0.274-0.158,1.077-0.158,1.077h-0.635
			c0,0-0.021-0.419,0-0.558c0.054-0.366,0.321-1.065,0.477-1.402c0.13-0.287,0.638-1.089,0.638-1.089L18.728,26.985z"/>
		<path fill="#FFFFFF" d="M18.909,13.828h1.571c0,0,0.597,0.142,0.747,0.272c0.132,0.114,0.329,0.612,0.329,0.612l0.177,0.454
			c0,0,0.024,0.225,0,0.294c-0.083,0.229-0.625,0.748-0.625,0.748l0.448,0.477c0,0,0.616-0.575,0.753-0.816
			c0.079-0.137,0.137-0.444,0.113-0.625c-0.023-0.193-0.253-0.67-0.328-0.849c-0.094-0.226-0.359-0.65-0.538-0.816
			c-0.144-0.134-0.492-0.343-0.684-0.385c-0.479-0.106-1.964,0-1.964,0V13.828z"/>
		<path fill="#FFFFFF" d="M23.715,15.687c0,0,0.949-0.05,1.259,0c0.108,0.018,0.318,0.107,0.396,0.182
			c0.414,0.392,0.797,1.516,1.021,2.04c0.117,0.276,0.305,0.857,0.318,1.156c0.009,0.209-0.148,0.824-0.148,0.824l0.466,0.431
			c0,0,0.29-0.624,0.339-0.847c0.038-0.171,0.027-0.529,0-0.703c-0.042-0.271-0.339-1.042-0.339-1.042s-0.181-0.552-0.273-0.794
			c-0.097-0.254-0.406-0.931-0.559-1.156c-0.151-0.223-0.613-0.551-0.869-0.635c-0.383-0.125-1.61,0-1.61,0V15.687z"/>
	</g>
	<g>
		<rect x="14.03" y="9.411" fill="#FFFFFF" width="0.635" height="26.707"/>
		<rect x="11.355" y="29.802" fill="#FFFFFF" width="0.634" height="3.868"/>
		<rect x="12.633" y="29.917" fill="#FFFFFF" width="0.634" height="4.957"/>
		<rect x="12.473" y="12.026" fill="#FFFFFF" width="0.634" height="3.87"/>
		<polygon fill="#FFFFFF" points="11.047,20.338 11.662,20.338 11.662,16.591 11.047,16.971 		"/>
		
			<rect x="4.282" y="25.536" transform="matrix(-0.7553 0.6553 -0.6553 -0.7553 26.0046 45.016)" fill="#FFFFFF" width="0.635" height="3.652"/>
		<rect x="6.095" y="28.35" fill="#FFFFFF" width="4.127" height="0.636"/>
		<rect x="5.37" y="25.458" fill="#FFFFFF" width="3.325" height="0.636"/>
		<polygon fill="#FFFFFF" points="6.548,24.188 7.025,23.72 3.523,19.917 3.056,20.347 		"/>
		
			<rect x="6.645" y="17.807" transform="matrix(-0.735 0.6781 -0.6781 -0.735 25.7769 30.324)" fill="#FFFFFF" width="0.635" height="4.784"/>
		
			<rect x="9.753" y="22.964" transform="matrix(-0.661 0.7504 -0.7504 -0.661 35.8304 34.7303)" fill="#FFFFFF" width="0.634" height="4.99"/>
		
			<rect x="10.752" y="21.216" transform="matrix(-0.6668 0.7452 -0.7452 -0.6668 35.517 29.922)" fill="#FFFFFF" width="0.636" height="3.369"/>
		<path fill="#FFFFFF" d="M13.928,8.769c0.028,0.029,0.335,0.09,0.495,0.234c0.193,0.174,0.242,0.435,0.242,0.435v0.192
			l-0.737-0.022c0,0-0.737-0.149-0.986-0.17c-0.454-0.039-1.369-0.05-1.821,0c-0.357,0.039-0.939,0.193-1.233,0.317
			c-0.094,0.04-0.27,0.145-0.359,0.193c-0.1,0.054-0.309,0.147-0.408,0.204c-0.111,0.064-0.329,0.203-0.43,0.283
			c-0.096,0.076-0.404,0.281-0.496,0.363c-0.133,0.119-0.411,0.431-0.411,0.431s-0.238,0.42-0.299,0.582
			c-0.041,0.109-0.068,0.346-0.091,0.454c-0.033,0.161-0.097,0.62-0.097,0.62s-1.374-0.063-1.826,0
			c-0.143,0.02-0.424,0.099-0.556,0.159c-0.137,0.063-0.406,0.208-0.521,0.306c-0.101,0.086-0.431,0.371-0.431,0.371l-0.423,0.453
			l-0.349,0.576c0,0-0.172,0.444-0.24,0.587c-0.068,0.144-0.159,0.417-0.227,0.561c-0.106,0.226-0.35,0.69-0.438,0.932
			c0,0-0.229,0.747-0.288,1.001c-0.083,0.367,0.032,1.14-0.064,1.504c-0.064,0.243-0.429,0.628-0.51,0.866
			c-0.066,0.193-0.031,0.818-0.031,0.818l0.087,0.695c0,0,0.178,0.526,0.26,0.705c0.134,0.285,0.59,1.155,0.59,1.155l0.393,0.589
			c0,0-0.162,0.414-0.196,0.438c-0.034,0.022-0.151,0.589-0.151,0.589v0.484l0.075,0.422l0.105,0.155l0.076,0.15l0.242,0.454
			l0.454,0.649l0.393,0.544l0.559,0.787l0.975,0.883l0.703,0.431l0.483,0.168l0.459,0.074h2.805v0.676H6.902l-0.489-0.102
			L5.71,30.771l-0.941-0.657l-1.054-1.008l-0.552-0.729L2.728,27.71l-0.441-0.611l-0.147-0.25L1.98,26.554l-0.113-0.237
			l-0.102-0.363V25.75v-0.931l0.079-0.249l0.117-0.375l-0.264-0.373L1.481,23.38l-0.125-0.249l-0.189-0.366l-0.117-0.416
			l-0.159-0.355l-0.125-0.495c0,0-0.114-0.421-0.114-0.572c0-0.167,0.114-0.701,0.114-0.701l0.091-0.282l0.079-0.213l0.181-0.271
			l0.238-0.272c0,0-0.055-1.084,0-1.44c0.02-0.129,0.159-0.499,0.159-0.499l0.17-0.487l0.284-0.726l0.271-0.646l0.284-0.668
			l0.408-0.733c0,0,0.338-0.512,0.477-0.662c0.099-0.108,0.334-0.287,0.453-0.374c0.145-0.106,0.452-0.293,0.612-0.374
			c0.107-0.054,0.332-0.136,0.442-0.182c0.068-0.028,0.272-0.113,0.272-0.113l0.499-0.079l1.039-0.088l0.038-0.184
			c0,0,0.066-0.284,0.102-0.375c0.076-0.193,0.289-0.555,0.408-0.725c0.112-0.162,0.385-0.448,0.521-0.59
			C7.912,10.123,8.161,9.9,8.294,9.8c0.096-0.071,0.303-0.189,0.4-0.257C8.756,9.5,8.811,9.449,8.876,9.411
			c0.07-0.041,0.363-0.17,0.363-0.17l0.333-0.151c0,0,0.339-0.143,0.438-0.181c0.118-0.046,0.54-0.14,0.54-0.14H13.928"/>
		<path fill="#FFFFFF" d="M1.481,22.417"/>
		<polygon fill="#FFFFFF" points="10.195,28.35 9.843,28.985 11.486,30.371 11.989,29.802 		"/>
		<polygon fill="#FFFFFF" points="5.557,28.949 6.176,28.985 6.176,28.35 5.475,28.35 		"/>
		<polygon fill="#FFFFFF" points="11.355,17.641 11.038,16.983 12.66,15.271 13.107,15.896 		"/>
		<polygon fill="#FFFFFF" points="10.18,21.083 9.874,20.434 11.225,19.797 11.664,20.343 		"/>
		<polygon fill="#FFFFFF" points="10.026,21.54 10.07,22.174 8.35,22.174 8.588,21.495 		"/>
		<polygon fill="#FFFFFF" points="8.397,23.556 8.526,24.149 6.548,24.188 6.808,23.505 		"/>
		<polygon fill="#FFFFFF" points="5.826,25.458 4.372,24.017 3.888,24.511 5.37,26.094 		"/>
		<polygon fill="#FFFFFF" points="8.35,26.094 8.816,27.051 9.359,26.778 8.854,25.458 8.35,25.458 		"/>
		<path fill="#FFFFFF" d="M11.355,27.012l0.634,0.885c0,0,0.405,0.707,0.484,0.944c0.091,0.273,0.16,1.076,0.16,1.076h0.634
			c0,0,0.021-0.418,0-0.557c-0.054-0.366-0.322-1.066-0.476-1.403c-0.132-0.286-0.639-1.088-0.639-1.088L11.355,27.012z"/>
		<path fill="#FFFFFF" d="M11.174,13.854h-1.57c0,0-0.599,0.142-0.749,0.272c-0.131,0.114-0.328,0.612-0.328,0.612L8.35,15.193
			c0,0-0.025,0.225,0,0.294c0.083,0.229,0.625,0.749,0.625,0.749l-0.449,0.476c0,0-0.615-0.576-0.753-0.816
			c-0.079-0.138-0.135-0.445-0.113-0.625c0.022-0.193,0.254-0.669,0.328-0.85c0.094-0.225,0.359-0.649,0.539-0.815
			c0.143-0.134,0.492-0.343,0.684-0.386c0.479-0.106,1.964,0,1.964,0V13.854z"/>
		<path fill="#FFFFFF" d="M6.367,15.714c0,0-0.948-0.05-1.258,0c-0.107,0.018-0.317,0.107-0.397,0.182
			c-0.414,0.392-0.797,1.515-1.02,2.04c-0.118,0.276-0.303,0.857-0.317,1.156c-0.01,0.209,0.148,0.825,0.148,0.825l-0.467,0.43
			c0,0-0.29-0.624-0.339-0.847c-0.038-0.171-0.027-0.529,0-0.702c0.043-0.272,0.339-1.043,0.339-1.043s0.181-0.552,0.274-0.794
			c0.097-0.254,0.406-0.931,0.559-1.156c0.152-0.223,0.614-0.552,0.87-0.635c0.382-0.125,1.609,0,1.609,0V15.714z"/>
	</g>
</g>
</svg>
